<?xml version="1.0" encoding="utf-8"?>
<!-- Generator: Adobe Illustrator 23.0.2, SVG Export Plug-In . SVG Version: 6.00 Build 0)  -->
<svg version="1.1" id="Layer_1" xmlns="http://www.w3.org/2000/svg" xmlns:xlink="http://www.w3.org/1999/xlink" x="0px" y="0px"
	 viewBox="0 0 526 411" style="enable-background:new 0 0 526 411;" xml:space="preserve">
<style type="text/css">
	.st0{fill:#F69C84;}
	.st1{fill:#DA674A;}
	.st2{fill:#908F0A;}
	.st3{fill:#0A0708;}
	.st4{fill:#201A0F;}
	.st5{fill:#3D3A18;}
	.st6{fill:#DF6742;}
	.st7{fill:#DA694C;}
	.st8{fill:#452E26;}
	.st9{fill:#1A2009;}
	.st10{fill:#DA6845;}
	.st11{fill:#F7F7F1;}
	.st12{fill:#1B1707;}
	.st13{fill:#33211D;}
	.st14{fill:#0E0E0E;}
	.st15{fill:#2F2A10;}
	.st16{fill:#10150E;}
	.st17{fill:#443E09;}
	.st18{fill:#949393;}
	.st19{fill:#918F24;}
	.st20{fill:#1C1310;}
	.st21{fill:#C4C4C4;}
	.st22{fill:#848586;}
	.st23{fill:#3A360F;}
	.st24{fill:#CECECE;}
	.st25{fill:#493F3E;}
	.st26{fill:#5A583A;}
	.st27{fill:#5D5B2B;}
	.st28{fill:#939330;}
	.st29{fill:#6D693A;}
	.st30{fill:#262821;}
	.st31{fill:#1D0D0A;}
	.st32{fill:#431814;}
	.st33{fill:#DC6F50;}
	.st34{fill:#E46647;}
	.st35{fill:#DE6740;}
	.st36{fill:#DE6848;}
	.st37{fill:#F4F5EE;}
	.st38{fill:#585350;}
	.st39{fill:#BDD63E;}
	.st40{fill:#FBF452;}
	.st41{fill:#E8E97B;}
	.st42{fill:#E7E97B;}
	.st43{fill:#909021;}
	.st44{fill:#E8E778;}
	.st45{fill:#656877;}
	.st46{fill:#FCFBF9;}
	.st47{fill:#F0F0EB;}
	.st48{fill:#938C13;}
	.st49{fill:#A7DBE8;}
	.st50{fill:#8F5D2D;}
	.st51{fill:#CB8D3B;}
	.st52{fill:#94601C;}
	.st53{fill:#B98B3F;}
	.st54{fill:#401E12;}
	.st55{fill:#B2D5E0;}
	.st56{fill:#7C71B1;}
	.st57{fill:#7E70B4;}
	.st58{fill:#C2D950;}
	.st59{fill:#636B73;}
	.st60{fill:#646982;}
	.st61{fill:#2C1E0A;}
	.st62{fill:#2A1D0A;}
	.st63{fill:#F9FAFA;}
	.st64{fill:#F9FAF8;}
	.st65{fill:#2A2318;}
	.st66{fill:#130E0C;}
	.st67{fill:#F1F2E7;}
	.st68{fill:#E5E6D4;}
	.st69{fill:#D7542E;}
	.st70{fill:#DFD9C2;}
	.st71{fill:#545353;}
	.st72{fill:#E1E5DF;}
	.st73{fill:#B05055;}
	.st74{fill:#F9F356;}
	.st75{fill:#DBDDD9;}
	.st76{fill:#635E2C;}
	.st77{fill:#606677;}
	.st78{fill:#321109;}
	.st79{fill:#3D391A;}
	.st80{fill:#ABBC23;}
	.st81{fill:#ADBB25;}
	.st82{fill:#3D3922;}
	.st83{fill:#ADBB24;}
	.st84{fill:#B97329;}
	.st85{fill:#F0E173;}
	.st86{fill:#28250F;}
	.st87{fill:#AFBB20;}
	.st88{fill:#DA8D55;}
	.st89{fill:#B0B920;}
	.st90{fill:#B0BA1C;}
	.st91{fill:#160C01;}
	.st92{fill:#696632;}
	.st93{fill:#C79020;}
	.st94{fill:#B69321;}
	.st95{fill:#B98E24;}
	.st96{fill:#92920A;}
	.st97{fill:#92920D;}
	.st98{fill:#91930A;}
	.st99{fill:#91950E;}
	.st100{fill:#909417;}
	.st101{fill:#919309;}
	.st102{fill:#929308;}
	.st103{fill:#919512;}
	.st104{fill:#939319;}
	.st105{fill:#7C7D7D;}
	.st106{fill:#2C2F2A;}
	.st107{fill:#525056;}
	.st108{fill:#202422;}
	.st109{fill:#121111;}
	.st110{fill:#881A06;}
	.st111{fill:#F3F5F3;}
	.st112{fill:#F6F5F6;}
	.st113{fill:#F29D89;}
	.st114{fill:#FAFBF9;}
	.st115{fill:#FCFCFB;}
	.st116{fill:#234557;}
	.st117{fill:#1E3847;}
	.st118{fill:#1DABD7;}
	.st119{fill:#1CACDA;}
	.st120{fill:#0D101A;}
	.st121{fill:#0C1016;}
</style>
<g>
	<path class="st0" d="M161.3,158.06c0.08,2.21,0.16,4.42,0.24,6.63c-0.77,1.32-2,0.77-3.12,0.82c-4.9,0.22-9.12,1.82-11.68,6.32
		c-1.32,2.32-2.73,2.84-5.25,1.46c-9.53-5.2-16.33-2.64-20.37,7.47c-3.47,8.68-0.76,21.93,5.81,28.33
		c7.24,7.06,15.69,5.77,20.52-3.13c0.48-0.88,0.83-1.82,1.13-2.76c1.06-3.36,2.71-4.19,5.78-1.86c4.16,3.16,8.76,5.41,14.15,5.57
		c3.41,1.15,2.15,2.77,0.46,4.44c-10,3.08-18.69,8.25-25.88,15.97c-3.32,3.56-5.72,7.68-7.23,10.07
		c5.32-10.33,14.86-18.66,27.63-23.28c1.56-0.56,3.07-1.3,4.8-0.93c2.84,1.02,2.47,3.47,1.95,5.46c-0.77,2.97-0.74,5.92-0.75,8.91
		c1.1-22.54,4.2-43.97,18.7-66.16c3.04-4.64,7.06-8.24,12.12-10.61c1.65,1.76,0.39,3.43-0.24,5.06
		c-10.19,26.35-8.01,52.32,3.83,77.34c9.74,20.58,24.83,36.38,46.39,45.23c5.96,2.45,6.11,3.53,1.77,8.37
		c-1.67,1.87-3.53,3.72-4.37,6.03c-2.62,7.22-7.47,12.88-12.35,18.55c-1.64,1.76-3.38,3.38-5.76,4.1
		c-14.05,3.71-28.28,4.13-42.49,1.45c-15.01-2.83-28.43-9.26-40.04-19.3c-1.64-1.42-3.29-2.82-4.74-4.44
		c-3.52-3.95-3.12-5.25,2.13-7.13c-4.81,0.46-9.44,1.57-13.7,3.91c-5.22,2.87-5.39,5.41-0.51,8.72c6.18,4.19,13.04,7.34,18.73,12.33
		c4.39,3.84,9.03,7.39,12.06,12.53c1.55,2.63,2.57,5.4,2.43,8.52c-0.24,5.23-2.96,8.26-8.19,8.96c-7.38,0.98-14.59-0.87-21.81-1.74
		c-18.29-2.21-36.05-6.63-52.28-15.69c-9.56-5.33-17.25-13.02-20.94-23.35c-3.31-9.27-1.03-18.64,4.63-26.55
		c6.8-9.5,14.94-17.78,25.28-23.68c6.47-3.69,13.46-5.66,21.74-7.47c-3.37-1.23-4.14-3.58-5.1-5.9
		c-6.16-14.86-9.68-30.38-11.58-46.28c-1.54-12.91-1.27-25.91-0.9-38.88c0.38-13.17,2.21-26.13,5.54-38.91
		c3.51-13.46,9.81-25.01,21.26-33.35c5.17-3.76,10.86-2.78,13.98,2.92c3.07,5.61,4.88,11.62,4.05,18.22
		c-0.77,6.12-0.02,12.31-0.65,18.45c-0.22,2.12,1,3.8,1.98,5.54c3.6,6.39,8.05,12.25,11.71,18.59c1.2,2.09,3.63,4.79-0.92,6.21
		c-1.27,0.22-2.58,0.15-3.85,0.37c0.37,2.77,1.59,4.2,4.48,4.75C155.22,154.84,158.55,155.87,161.3,158.06z"/>
	<path class="st1" d="M150.66,148.06c3.76,0.14,2.1-1.84,1.19-3.29c-3.42-5.46-6.8-10.96-10.45-16.27
		c-2.63-3.83-3.86-7.82-4.04-12.51c-0.3-7.62,1.18-15.18,0.25-22.81c-0.46-3.74-1.95-7.07-3.43-10.35
		c-2.36-5.25-7.9-6.12-12.49-2.57c-11.87,9.19-17.92,21.43-21.42,35.92c-5.42,22.46-5.23,45.14-4.6,67.84
		c0.27,9.67,3.2,19.16,5.08,28.7c1.55,7.91,5.17,14.91,6.94,22.57c0.92,3.95,3.11,6.21,8.11,6.58c-5.03,3.37-10.02,3.16-14.48,4.57
		c-7.59,2.41-14.06,6.51-20.11,11.44c-7.21,5.87-13.38,12.75-17.83,20.92c-5.5,10.11-2.86,23.54,4.73,32.11
		c9.09,10.25,20.7,15.45,33.29,19.73c16.49,5.6,33.46,8.11,50.66,9.23c9.3,0.61,12.82-5.57,8.81-14.09
		c-2.56-5.45-7.09-9.14-11.54-12.84c-5.73-4.77-12.04-8.7-18.57-12.29c-2.62-1.44-6.01-2.99-5.99-6.12
		c0.02-3.37,3.49-5.01,6.34-6.38c5.6-2.68,11.43-4.14,18.09-2.7c-0.53,0.65-0.74,1.19-1.06,1.27c-2.48,0.59-6.24-0.28-6.95,2.43
		c-0.53,2.01,2.69,3.9,4.52,5.52c16.13,14.25,34.82,22.11,56.5,22.32c9.31,0.09,18.61,0,27.62-2.84c0.27,4.78-3.54,5.2-6.65,5.69
		c-16.27,2.55-32.47,2.65-48.27-2.82c-4.98-1.72-9.97-1.96-15.71-1.35c2.09,3.28,4,6.13,5.7,9.1c0.41,0.73,0.63,1.5,0.59,2.34
		c-1.67,1.7-0.76,3.8-0.83,5.72c-0.21,5.23-2.84,8.32-7.98,9.31c-7.37,1.43-14.56-0.69-21.82-1.23
		c-20.26-1.51-39.57-6.65-57.58-16.28c-0.81-0.28-1.76-0.15-2.44-0.82c-2.27-2.45-5.18-4.16-7.5-6.55c-0.24-0.42-0.26-0.85-0.11-1.3
		c-2.31-4.38-5.91-7.96-7.7-12.69c-4.31-11.42-2.21-22.02,4.36-31.79c9.41-14,22.23-23.65,38.59-28.12
		c3.77-1.03,3.28-2.71,2.32-5.37c-9.5-26.48-12.97-53.9-12.18-81.89c0.42-14.61,1.12-29.35,5.28-43.42
		c3.53-11.96,9-23.28,18.3-32.12c9.07-8.63,18.59-6.21,22.64,5.62c3.28,9.57,2.58,19.38,1.33,29.14c-0.48,3.7,0,6.65,2.4,9.7
		c5.74,7.27,11.41,14.67,13.67,23.97C154.11,150.26,152.02,151.28,150.66,148.06z"/>
	<path class="st2" d="M425.72,160.12c0.57,1.31,1.93,0.43,2.76,1c0.28,1.35-0.44,2.12-1.54,2.67c-2.93,0.91-6,0.92-8.91,0.4
		c-7.42-1.34-14.6-0.09-21.72,1.59c-5.63,1.33-11.04,1.71-16.67-0.21c-5.64-1.93-11.51-1.53-17.27-0.21
		c-10.37,2.37-20.69,3.35-30.98-0.46c-2.23-0.83-4.62-0.42-6.92,0.06c-9.4,1.94-18.8,2.26-28.2-0.02c-0.32-0.08-0.65-0.15-0.98-0.17
		c-1.64-0.12-3.86-0.69-4.36,1.24c-0.51,1.99,1.79,2.76,3.27,3.05c9.41,1.84,16.33,7.66,23.39,13.61
		c9.31,7.84,19.81,11.11,32.04,6.96c6.28-2.13,12.91-1.39,19.24,0.37c8.28,2.3,16.45,1.77,24.7,0.02
		c8.31-1.77,16.62-3.44,25.13-0.81c3.12,0.96,6.26-0.25,9.31-1.08c8.36-2.28,16.66-4.6,25.47-1.84c3.36,1.05,6.94,0.12,10.34-0.82
		c4.18-1.15,8.39-2.08,13-2.27c-7.89-1.7-14.46-5.22-18.41-12.48c-0.23-0.55-0.19-1.08,0.11-1.59c3.86-0.7,6.24,1.74,8.53,4.15
		c2.91,3.06,6.08,5.71,10.25,6.76c11.71,2.95,12.72,15.14,7.98,22.37c-3.89,5.92-5.21,11.99-5.63,18.69
		c-0.31,4.92-1.98,9.3-5.39,13.08c-5.26,5.85-8.55,12.6-8.64,20.7c-0.05,4.19-1.63,7.83-5.21,10.24c-2.91,1.96-4.09,5.1-5.87,7.84
		c-1.03,0.31-1.46-0.34-1.82-1.12c-0.33-1.1-0.23-2.18,0.15-3.25c6.42-7.46,10.17-16.02,11.57-25.83c0.69-4.85,4.19-8.63,7.15-12.45
		c3.7-4.78,5.99-9.82,5.09-16.14c-0.5-3.5,0.68-6.91,2.7-9.93c1.57-2.36,3.03-4.79,4.09-7.43c2.23-5.56,0.51-8.13-5.58-8.41
		c-3.88-0.18-7.64,0.61-11.34,1.58c-6.57,1.73-13.18,1.85-19.81,0.78c-4.26-0.69-8.32,0.17-12.31,1.33
		c-7.48,2.17-14.97,2.91-22.7,1.59c-3.94-0.67-8.01-0.7-11.93,0.22c-12.35,2.9-24.67,3.5-37.06,0.25c-4.79-1.26-9.55-0.9-14.26,0.71
		c-3.48,1.19-7.12,1.7-10.79,1.95c-5.58,0.38-7.28,1.9-7.68,7.54c-0.26,3.66-0.37,7.31-1.25,10.89c-0.36,1.46-0.5,3.05-1.3,4.29
		c-4.92,7.55-5.47,16.26-6.84,24.79c-0.83,5.18-2.99,9.89-6.37,13.93c-3.63,4.33-5.83,9.19-6.71,14.79
		c-1.11,7.07-4.05,13.35-9.14,18.52c-1.91,1.94-2.85,4.47-4.17,6.77c-1.22,2.12-2.3,4.63-5.56,3.99c-0.69-0.57-0.84-1.32-0.74-2.16
		c2.97-6.28,5.76-12.63,11.04-17.53c2.09-1.94,2.84-4.83,3.29-7.68c1.2-7.52,3.73-14.45,8.81-20.31c4.65-5.38,5.07-12.16,5.88-18.74
		c0.74-6.01,2.02-11.7,5.42-16.9c2.42-3.7,2.66-8.16,2.8-12.51c0.09-2.99-0.18-6.02,1.11-8.84c1.1-2.42-0.07-3.58-2.12-4.69
		c-5.43-2.92-10.47-6.4-14.92-10.75c-3.13-3.06-6.84-5.25-11.18-6.27c-1.94-0.46-3.83-1.11-5.69-1.84c-6.4-2.53-7.01-2.15-6.45,5.01
		c0.35,4.47,1.1,8.9,0.91,13.41c-0.16,3.88-0.85,7.65-2.75,11.03c-1.7,3.01-2.5,6.12-2.2,9.54c-0.02,0.99,0,1.98-0.09,2.96
		c-0.13,1.44,0.06,3.28-1.6,3.8c-1.42,0.45-2.1-1.32-3.19-1.98c-0.63-0.6-1.04-1.32-1.19-2.18c-1.27-4.82-0.1-9.44,2.24-13.47
		c3.46-5.96,3.36-11.99,2-18.33c-1.33-6.22-0.83-12.17,2.4-17.84c3.5-6.13,8.87-8.92,15.47-7.27c7.85,1.96,15.38,1.31,23.18,0.12
		c6.22-0.95,12.62-0.93,18.71,1.49c3.53,1.4,7.16,1.33,10.78,0.31c4.66-1.31,9.41-2.09,14.19-2.75c3.15-0.44,6.47-1.03,9.42-0.01
		c8.85,3.07,17.63,2.39,26.54,0.57c7.59-1.56,15.21-1.38,22.77,0.39C424.39,159.05,425.19,159.34,425.72,160.12z"/>
	<path class="st3" d="M288.62,300.02c0.06,0.67,0.11,1.34,0.17,2.02c0.48,2.04-0.03,3.97-0.68,5.88c-0.77,1.36-2.08,2.13-3.29,3.01
		c-3.17,2.06-6.59,3.75-9.84,6.71c9.2,5.08,18.24,9.55,28.71,10.03c2.66,0.12,5.27,0.48,7.82,1.22c0.97,0.29,2.51,0.32,1.94,2.13
		c-3.37,0.75-6.73,0.65-10.1,0.07c-8.36-0.05-16.62-1.28-24.9-2.22c-4.67-0.84-9.38-0.4-14.08-0.53c-1.06-0.03-1.93,0.05-2.45-1.02
		c-0.03-5.97,2.91-11.1,4.72-16.54c0.57-1.73,1.39-3.37,1.98-5.09c0.33-0.99,1.33-2.38-0.22-2.99c-1.33-0.52-2.03,0.86-2.5,1.9
		c-3.2,7.09-6.48,14.15-9.62,21.27c-0.86,1.95-1.5,4.1-3.62,5.15c-0.75,0.37-1.21-0.16-1.62-0.72c-0.33-2.31-2.08-2.27-3.78-2.3
		c-2-0.04-4-0.05-6-0.01c-18.16,0.38-36.32-0.19-54.44-0.78c-7.4-0.24-14.9-0.2-22.31-1.07c-2.82-3.79-4.97-8.06-9.07-11.98
		c7.2-0.27,13.33-0.82,19.71,1.4c16.53,5.76,33.49,5.76,50.56,2.41c2.29-0.45,3.34-1.9,4.12-3.81c2.12-0.24,2.84-2.37,4.45-3.29
		c1.55-0.63,3.03-1.07,3.72,1.12c-0.01,0.48-0.17,0.93-0.46,1.31c-3.22,2.33,0.26,2.65,1.15,3.73c3.63,1.16,7.39,1.72,11.06,2.7
		c1.63,0.44,3.28,0.67,4.48-0.96c0.39-2.59-2.79-2.28-3.33-4.09c-1.55-1.92-3.4-3.54-5.35-5.05c-0.33-0.33-0.58-0.73-0.76-1.16
		c-0.58-2.38,0.03-4.4,2.32-5.41c2.1-0.93,3.34,0.88,4.66,2.06c1.96,1.76,3.7,3.74,5.46,5.7c-0.52-0.84-1.24-1.58-1.29-2.64
		c0.02-0.46,0.15-0.88,0.39-1.26c0.44-0.3,1.51-0.52,0.65-1.23c-5.76-4.76-3.12-9.61-0.27-14.48c0.58-1,1.31-1.89,2.02-2.8
		c0.9-1.19,1.68-2.46,2.64-3.6c3.81-5.05,7.93-9.77,13.8-12.56c5.6-2.67,9.29-1.38,11.36,4.41
		C289.24,284.21,289.45,292.08,288.62,300.02z"/>
	<path class="st4" d="M256.57,306.71c-0.03,0.44-0.07,0.89-0.1,1.33c-4.9-0.42-5.64-5.42-9.14-8.23c-1.63,3.02-3.47,5.85-6.38,8.63
		c1.93-0.41,3.44-0.73,4.59,0.54l-0.03-0.04c-1.53,3.65-4.37,4.64-8.03,3.95c-0.14-2.14-1.81-1.86-3.2-2.03
		c9.05-7.95,10.99-20.83,20.84-29.23c-27.19-9.53-44.86-28.53-55.1-54.03c-10.16-25.32-10.91-51.18,0.76-76.6
		c-0.34-3.76,2.49-5.86,4.43-8.43c5.9-7.12,12.68-13.15,21.29-16.82c2.17-0.92,2.93-2.53,3.13-4.64c0.47-4.79,0.97-9.58,1.39-14.38
		c1.05-12.03,5.71-17.22,17.48-19.42c0.98-0.18,1.97-0.34,2.95-0.5c2.67,2.69,0.06,3.66-1.6,4.95c-4.01,0.84-8.28,1.08-11.22,4.58
		c-2.78,3.31-4.35,7.01-3.55,11.44c0.08,1.2-0.23,2.37-0.26,3.56c0.4,5.28-1.26,10.16-3.17,14.93c-1.15,2.87-1.64,6.53-6.66,5.33
		c-1.84-0.44-3.5,2.19-4.7,4.02c-5.64,8.62-10.76,17.5-13.92,27.38c-0.32,0.95-0.56,1.92-0.73,2.91
		c-3.95,21.28-3.23,42.14,5.22,62.4c2.52,6.05,6.38,11.2,10.12,16.47c9.77,12.31,21.18,22.42,36.5,27.31
		c0.66,0.21,1.14,0.65,1.43,1.29c0.12,2.24-1.41,2.5-3.09,2.59c-13.32-3.62-23.88-11.69-32.95-21.59
		c-17.5-19.1-25.05-42.2-24.54-67.76c0.34-16.66,4.19-32.64,13.67-46.13c-12.13,11.35-17.58,40.13-16.03,56.41
		c2.02,21.18,9.51,40.02,23.47,56.18c8.72,10.1,19.25,17.81,31.28,23.54c1.65,0.78,3.43,1.3,4.88,2.48c1.68,1.73,2.95,3.56,1.64,6.1
		c-0.6,0.99-1.28,1.93-2.03,2.79c-7.05,8.1-5.9,5.55,0,15.23C255.9,304.32,257.02,305.19,256.57,306.71z"/>
	<path class="st5" d="M262.47,326.99c5.22,1.54,10.85-0.35,15.99,1.88c-3.99-0.01-7.98,0.08-11.97-0.08
		c-2.37-0.1-3.61,0.58-4.16,3.08c-1.16,5.35-2.59,10.65-4.04,15.94c-0.39,1.42-0.43,2.53,0.67,3.63c1.85,1.85,2.39,4.02,2.43,6.74
		c0.05,3.69,4.39,5.81,7.24,3.63c3.07-2.35,6.02-3.18,8.9-0.4c2.87,2.77,1.94,6.26,0.32,9.24c-1.82,3.35-4.96,4.83-8.82,4.06
		c-2.36-0.47-4.19-1.89-5.78-3.7c-1.18-1.34-2.28-3.13-4.5-2.4c-2.41,0.78-3.08,2.88-3.27,5.12c-0.27,3.16-0.16,6.31,0.62,9.42
		c0.4,1.61,0.96,3.24,1.03,4.87c0.17,3.79-1.66,6.78-5.34,7.35c-3.35,0.52-4.72-2.44-5.56-5.31c-0.72-2.43-0.93-4.86-0.37-7.38
		c0.58-2.62,0.6-5.26-0.11-7.9c-0.8-2.95-2.23-3.4-4.63-1.49c-3.36,2.67-5.07,6.54-7.4,9.95c-2.13,3.12-4.61,5.76-8.41,6.59
		c-2.9,0.63-5.76,0.37-7.41-2.61c-1.53-2.76,0.18-4.86,1.94-6.63c2.45-2.47,5.26-4.59,7.73-7.05c1.69-1.69,4.31-3.56,2.3-6.3
		c-1.83-2.48-4.23-0.66-6.3,0.26c-2.58,1.15-5.04,2.6-7.7,3.48c-3.3,1.1-6.48,0.62-8-2.97c-1.62-3.82,1.49-5.39,4.06-6.83
		c1.86-1.05,3.94-1.9,6.03-2.31c7.13-1.39,12.88-4.97,18.93-9.02c7.89-5.28,9.59-13.37,14.41-21.12
		c-29.34,0.36-57.57-0.94-85.82-1.63c-0.32-0.33-0.65-0.66-0.97-0.99c24.79,0.3,49.57,0.59,74.36,0.88c2.5,0.03,5.03,0.26,7.48-0.06
		c3.33-0.43,5.29,0.71,6,3.98c-0.24,7.74-3.64,14.06-9.61,18.62c-7.74,5.92-15.39,12.24-25.75,13.37c-1.73,0.19-4.98,1.01-4.33,3.11
		c0.84,2.72,3.66,0.96,5.57,0.37c2.7-0.83,5.21-2.25,8.07-2.54c2.66-0.27,5.04,0.28,6.46,2.79c1.3,2.31,0.61,4.54-0.75,6.58
		c-2.06,3.09-4.99,5.32-7.79,7.68c-1.37,1.16-3.38,2.7-2.16,4.51c1.45,2.15,3.61,0.59,5.29-0.41c2.52-1.5,3.87-4.07,5.48-6.39
		c1.9-2.73,3.63-5.6,6.25-7.75c1.74-1.42,3.68-2.42,5.98-1.55c2.48,0.94,3.45,2.99,3.62,5.49c0.23,3.33,0.06,6.66,0.12,9.99
		c0.02,1.17,0.03,2.34,0.36,3.47c0.33,1.14,0.76,2.46,2.13,2.42c1.85-0.05,1.73-1.76,1.82-3.02c0.19-2.49,0.09-4.99-0.41-7.46
		c-0.57-2.8-0.74-5.63-0.28-8.45c1.03-6.31,6.25-8.4,11.37-4.61c1.47,1.09,2.66,2.54,4.31,3.38c2.98,1.52,6.19,0.34,7.4-2.73
		c0.59-1.48,0.66-2.96-0.58-4.16c-1.18-1.15-2.41-0.58-3.68-0.03c-7.41,3.21-10.89,1.51-13.06-6.33c-0.18-0.64-0.21-1.36-0.57-1.91
		c-6.77-10.35,0.85-18.9,3.52-28.06C261.27,326.9,261.96,326.87,262.47,326.99z"/>
	<path class="st6" d="M249.47,90.9c1.69-0.86,2.92-1.94,1.98-4.08c7.63-8.98,15.08-18.11,23.74-26.17
		c7.37-6.87,15.54-12.41,24.73-16.58c7.4-3.35,15.04-4.1,22.95-3.06c6.33,0.83,9.11,4.12,8.44,10.59
		c-0.89,8.61-5.16,16.06-8.82,23.68c-3.11,6.48-5.08,13.34-7.14,20.19c-0.35,1.17-0.4,2.26,0.21,3.34c-0.03,1.3,0.78,2.57,0.16,3.9
		c-1.11,3.94-3.09,7.66-2.95,11.91c-0.9,1.27-2.05,1.29-3.34,0.71c-2.79-4.58-1.31-9.37-0.28-13.95
		c2.89-12.84,7.62-25.08,12.96-37.09c1.55-3.49,3.25-6.93,3.8-10.77c0.76-5.24-0.48-7.09-5.65-7.91
		c-5.55-0.88-11.12-0.24-16.11,2.06c-8.42,3.88-16.8,7.85-24.05,13.94c-12.1,10.17-21.34,22.2-26.31,37.31
		c-0.53,1.62-1.29,3.06-2.75,4.04c-2.82,0.61-3.21-1.65-4.02-3.41C246.87,96.4,247.82,93.55,249.47,90.9z"/>
	<path class="st7" d="M369.85,109.6c8.43,0.88,13.14-4.93,18.58-9.9c10.17-9.3,21.8-16.28,35.46-19.18
		c6.76-1.43,13.57-1.61,19.57,2.84c4.97,3.68,6.33,8.06,4.51,13.99c-1.72,5.61-5.68,9.62-9.52,13.78
		c-4.59,4.98-9.25,9.99-10.9,16.89c-0.09,1.15,0.01,2.33-0.53,3.41c-2.98,3.07-1.85,7.54-3.74,10.99c-0.96,0.49-1.91,0.47-2.84-0.08
		c-1.85-2.11-1.6-4.42-1.08-7.02c2.06-10.3,8.85-17.76,15.14-25.48c2.63-3.24,5.03-6.63,7.5-9.97c2.42-3.27,3.12-7.15,1.43-10.89
		c-1.72-3.79-5.43-4.6-9.26-4.7c-14.98-0.4-27.57,5.54-38.59,15.08c-6.55,5.67-12.41,12.08-16.89,19.61
		c-0.96,1.62-2.09,3.02-4.08,3.39c-1.9-0.21-2.42-1.5-2.47-3.15c1.1-1.96,2.27-3.89,2.58-6.17c0.4-1.39-0.47-1.65-1.56-1.86
		C371.94,110.94,370.39,111.3,369.85,109.6z"/>
	<path class="st8" d="M168.6,207.66c-7.13,1.04-12.26-2.91-17.32-7.45c-1.32,3.52-2.37,6.63-4.47,9.23
		c-5.2,6.43-13.4,7.25-19.76,1.95c-9.47-7.9-11.68-26.67-4.3-36.52c4.9-6.53,11.96-7.85,18.78-3.26c2.13,1.44,2.83,2.08,4.48-0.93
		c3.27-5.97,9.09-7.22,15.51-6c6.84,2.41,11.02,7.82,15.02,13.41c0.68,1.16,0.28,1.89-0.92,2.3c-3.37-1.02-4.29-4.41-6.31-6.7
		c-2.9-3.29-6.32-5.32-10.56-6.05c-4.06-0.7-7.02,1.08-9.51,4.13c-2.28,2.8-0.98,5.23,0.41,7.79c1.78,3.25,2.76,6.76,3.03,10.45
		c0.72,9.9,4.77,13.95,14.84,14.75c1.24,0.23,2.8,0.23,2.94,1.85C170.56,207.5,169.32,207.43,168.6,207.66z"/>
	<path class="st9" d="M369.85,109.6c1.64,0.01,3.29-0.03,4.93,0.06c0.9,0.05,2.2-0.41,2.49,0.89c0.3,1.39-0.85,1.98-1.94,2.45
		c-2.02,1.4-4.21,0.14-6.33,0.4c-5.08,0.62-5.96,2.89-6.86,7.82c-1.37,7.56,2.16,11.76,7.56,15.64c2.7,1.94,4.9,4.51,6.95,7.14
		c0.8,1.03,1.94,2.34,0.83,3.53c-1.22,1.32-2.5-0.04-3.4-0.84c-2.75-2.43-5.6-4.73-8.39-7.09c-9.49-8.01-19.71-14.79-31.96-17.9
		c-6.79-1.72-8.24-0.69-8.81,6.37c-0.31,3.82,0.08,7.66-0.23,11.48c-0.1,1.26-0.02,3.06-1.65,3.22c-1.61,0.15-1.99-1.63-2.24-2.84
		c-1.41-6.72-2.55-13.54-0.22-20.22c2.34-6.69,1.97-12.37-4.45-16.59c-0.39-0.26-0.44-0.87-0.47-1.38c-0.58-0.96-2.18-1.9-0.08-2.93
		c4.15,2.62,7.21,6.34,10.19,10.14c0.98,1.24,1.83,2.62,1.26,4.11c-1.36,3.49,0.38,3.91,3.33,4.4c8.81,1.47,16.77,5.26,24.21,10.07
		c3.12,2.01,4.09,1.31,3.96-2.13c-0.03-0.83,0.03-1.66,0.02-2.49C358.39,113.48,360.44,111.06,369.85,109.6z"/>
	<path class="st10" d="M175.45,180.41c1.18-0.39,1.14-1.36,1.11-2.32c6.21-13.71,14.84-25.52,26.99-34.59
		c0.51-0.38,1.12-0.62,1.67-0.93c-1.48,2.81-2.96,5.62-4.44,8.43c-7.9,5.03-12.93,12.47-17.05,20.58
		c-9.35,18.41-12.61,38.23-13.27,58.62c-0.03,0.83-0.1,1.66-0.24,2.47c-0.04,0.23-0.42,0.39-1.22,1.09
		c-0.72-5.27-0.68-10.06,0.01-14.89c0.26-1.78,1.64-4-1.25-5.06c-0.77-1.28,0.85-1.99,0.74-3.11c0.4-1,2.93-1.93,0.1-3.03
		c0.46-0.41,0.92-0.82,1.37-1.23c-0.69-0.26-1.37-0.53-2.06-0.79c2.93-6.63,3.62-13.88,5.7-20.74
		C174.07,183.35,174.11,181.6,175.45,180.41z"/>
	<path class="st11" d="M448,306.02l-0.03-0.11c1.4,2.63,0.36,4.79-1.69,6.34c-1.75,1.32-3.77,0.88-5.51-0.46
		c-0.68-0.52-1.4-0.87-2.28-0.68c-2.72,1.27-5.26,2.72-6.64,5.34c-0.04,0.58,0.15,0.77,0.56,0.83c2.68,0.37,5.78,0.83,6.04,4
		c0.24,2.85-2.84,3.79-4.96,4.87c-2.63,1.34-5.42,2.53-8.53,1.45c-3.51-3.03-5.86-6.59-5.31-11.49c0.76-3.38,2.84-5.54,6.19-6.31
		c4.55-1.04,7.1-5.23,11.21-6.93C441.13,302.47,445.02,302.66,448,306.02z"/>
	<path class="st12" d="M455.64,284.97c-1.89,4.53-6.08,5.32-10.16,6.54c-2,0.59-4.29-0.09-6.02,1.46c-0.55,0.51-1.17,0.89-1.91,1.02
		c-8.74-0.64-17.36-1.88-25.78-5.65c0.89,1.17,1.35,2.01,0.57,3.01c-0.97,0.56-1.94,0.51-2.93,0.05c-3.34-3.24-6.36-6.79-9.9-9.84
		c-1.05-0.9-2.81-1.92-1.62-3.55c0.89-1.23,2.52-0.43,3.68,0.13c5.41,2.62,11.06,4.6,16.82,6.23c6.58,1.86,13.29,2.78,20.11,3.4
		c6.59,0.6,11.55-2,16.16-6.08C456.65,282.29,455.98,283.68,455.64,284.97z"/>
	<path class="st13" d="M390.75,326.14c-12.89,2.48-25.83,4.56-38.98,4.96c-3.88,0.72-7.79,0.26-11.68,0.27
		c-1.25-0.87-0.8-1.63,0.3-2.06c1.64-0.63,3.57-0.17,5.1-1.31c-1.34,0.35-2.64,1.01-4.09,0.61c-0.69-0.28-1.15-0.74-1.2-1.52
		c-0.41-0.5,1.34-1.38,0.1-1.28c-2.22,0.17-4.44,0.38-6.68,0.46c-1.7-0.29-3.89,0.28-4.26-2.38c2.76-2.21,6.09-2.11,9.35-2.3
		c3.14-0.01,6.43-2.62,9.39,0.51c4.55,3.53,8.42,0.99,12.31-1.39c1.1-0.2,1.9,0.32,2.61,1.07c0.78,1.53,2.03,3.08-0.11,4.53
		c-2.68-0.47-5.06,0.57-7.7,1.56c2.59-0.35,4.84-1.31,7.27-1.01c3.08-0.62,6.2-1.17,9.33-1.11c3.28,0.06,6.21-0.69,8.84-2.62
		c1.35-0.67,2.72-1.08,4.17-0.3c1.16,0.79,2.55,1.04,3.85,1.51C389.55,324.74,390.38,325.18,390.75,326.14z"/>
	<path class="st14" d="M390.75,326.14c-0.75-0.36-1.5-0.73-2.25-1.09c1.94-2.94,5.31-2.28,8.06-3.11c1.72-0.52,3.55-0.74,5.31-1.21
		c2.66-0.71,5.44-0.87,8.11-1.58c2.75-1.03,5.57-1.89,8.03-3.62c0.75-0.53,1.95-1.71,2.68,0.22c-0.41,4.65,1.74,8.23,4.78,11.43
		c0.24,0.48,0.13,0.86-0.3,1.15c-3.09,0.72-5.31-3.51-8.92-1.41c1.81,2.49,4.35,2.68,6.96,2.83c2.93,0.16,6,0.13,7.56,3.39
		c-0.14,0.87-0.72,1.27-1.53,1.45c-6.81-0.64-14.02-0.12-18.93-6.39c-4.87-3.49-10.25-3.25-15.75-2.17
		C393.3,326.07,392.03,326.1,390.75,326.14z"/>
	<path class="st15" d="M469.62,323.95c1.37,4.72-1.72,7.07-5.01,9.19c-7.19,4.64-15.31,7.12-23.37,9.71
		c-0.94,0.3-2.49,0.23-2.78,0.82c-3.87,7.83-14.86,9.11-16.99,18.54c-0.23,1-1.39,1.8-2.12,2.69c-1.03,0.27-1.23-0.44-1.41-1.19
		c1.8-6.67,5.34-12.03,11.57-15.38c1.02-0.55,2.3-0.95,2.84-1.94c3.17-5.73,9.04-6.77,14.48-8.67c5.15-1.8,10.39-3.43,14.87-6.73
		c4.72-3.48,4.83-4.45,0.92-8.6c-0.34-0.36-0.5-0.85-0.57-1.35c0.92-2.69,2.66-1.46,4.27-0.91c1.28,0.79,2.36,1.78,3.11,3.11
		C469.5,323.47,469.56,323.71,469.62,323.95z"/>
	<path class="st16" d="M426.2,131.08c0.05-1.2,0.06-2.42,1.36-3.07c2.56,3.47,5.2,6.89,7.66,10.43c3.68,5.27,3.46,8.41-1.54,12.36
		c-3.33,2.64-5.78,5.81-7.96,9.32c-0.74-0.06-1.49-0.11-2.23-0.17c-0.31-5.09,2.67-8.68,5.87-11.93c2.99-3.04,3.16-5.75,0.69-9.11
		C428.33,136.56,426.25,134.29,426.2,131.08z"/>
	<path class="st17" d="M455.64,284.97c-0.29-1,0.08-2.2-0.9-2.99c-4.63-8.6-7.12-9.75-18.61-8.28c-8.29,1.06-16.53,1.11-24.76-0.46
		c-1.8-0.34-3.6-0.72-5.18-1.69c-1.43-0.88-2.95-1.85-1.54-3.91c4.05-1.09,7.81,0.85,11.69,1.29c6.13,0.7,12.13,0.41,18.25,0.04
		c6.38-0.38,13.31-2.52,18.94,2.84c0.34,0.37,0.67,0.74,1.01,1.11C456.12,276.83,457.83,280.73,455.64,284.97z"/>
	<path class="st18" d="M75.42,323.69c0.62,0.32,1.24,0.64,1.85,0.96c-5.92-0.24-11.83-0.48-17.75-0.71
		c-5.7-0.89-11.52-0.23-17.2-1.46c-0.95-0.21-1.99,0.04-2.93-0.38c-1.14-0.5-2.07-1.28-1.93-2.58c0.12-1.2,1.29-1.27,2.27-1.5
		c3.56-0.84,7.26-0.03,10.8-1.02c5.57-0.34,11.13-0.69,16.7-1.03c0.11,0.37,0.21,0.74,0.32,1.11c-2.85,2.84-6.8,1.71-10.2,2.9
		c3.89,0.69,7.69,1.64,11.63,1.67C71.35,321.67,73.63,321.91,75.42,323.69z"/>
	<path class="st19" d="M420.69,315.76c-3.45,1.21-6.31,3.78-10.05,4.28c-0.68,0.46-1.39,0.46-2.12,0.18c-0.16-0.32-0.3-0.8-0.12-0.9
		c4.68-2.5,7.46-7.85,11.99-9.76c8.14-3.44,13.72-8.7,17.23-16.55c0.61-0.01,1.23-0.02,1.84-0.03c0.32,1.49,0.07,2.98-0.71,4.19
		c-2.14,3.3-0.52,4.3,2.57,4.56c-1.09,2.06-3.75,0.59-5.03,2.24c-3.05,3.62-6.53,6.52-11.4,7.38
		C422.52,311.76,421.41,313.64,420.69,315.76z"/>
	<path class="st20" d="M150.66,148.06c1.63,1.66,3.74,0.56,5.58,0.97c4.31,1.54,3.44,5.98,5.06,9.03
		c-4.72-0.58-8.89-3.26-13.68-3.62c-0.88-0.07-2.34-0.67-1.54-1.82C147.3,150.87,145.94,146.28,150.66,148.06z"/>
	<path class="st21" d="M473.49,316.99c4.3,0.07,8.72-0.48,12.86,0.37c3.83,0.79,8.05-0.31,12.64,3.02
		c-10.15,3.1-19.83,2.86-29.37,3.57c0,0-0.29,0.12-0.29,0.12c0.38-2.81,2.84-2.06,4.51-2.57c1.86-0.57,3.85-0.6,5.79-1.06
		C477.91,318.62,474.19,320.5,473.49,316.99z"/>
	<path class="st22" d="M473.49,316.99c2.09,1.53,4.72,1.06,7.01,1.88c0.98,0.35,2.7-0.23,2.49,1.52c-0.16,1.32-1.62,1.39-2.8,1.5
		c-3.69,0.36-7.49,0.24-10.87,2.16c-0.91-1.04-1.83-2.08-2.74-3.11c-2.15-3.15-5.92-0.95-8.56-2.57c-1.21-0.75-3.54,0.19-3.52-2.38
		C460.83,316.33,467.16,316.66,473.49,316.99z"/>
	<path class="st23" d="M413.45,354.87c0.59-0.91,1.19-1.81,2-3.05c-4.28-0.32-7.32,1.75-10.49,3.35c-1.77,0.89-3.45,2.02-5.3,2.71
		c-2.17,0.81-5.17,0.7-5.5-1.65c-0.61-4.34-2.67-8.61-1.42-13.16c0.84-0.13,1.29,0.4,1.71,0.99c1.23,2.03,2.76,1.24,4.31,0.47
		c2.24-1.11,4.5-2.22,7.05-2.38c0.98-0.06,2.17-0.02,2.54,1.09c0.4,1.21-0.73,1.72-1.55,2.2c-1.58,0.93-3.37,1.44-4.99,2.28
		c-1.48,0.77-3.01,1.46-4.13,2.75c-0.9,1.03-1.75,2.23-0.76,3.56c0.86,1.15,2.11,0.68,3.19,0.21c2.59-1.15,5.09-2.48,7.62-3.74
		c2.12-1.05,4.31-1.8,6.7-1.69c1.48,0.07,3.29-0.14,4.01,1.42c0.8,1.74-0.48,3.15-1.56,4.43c-0.65,0.77-1.42,1.4-2.45,1.63
		C413.6,356.14,412.98,355.87,413.45,354.87z"/>
	<path class="st24" d="M50.53,317.01c-3.88,1.78-8.38,0.58-12.93,2.91c7.17,4.08,15.03,1.71,21.93,4.02
		c-11.67,0.47-23.09-1.27-34.52-3.64C33.37,317.49,41.87,316.59,50.53,317.01z"/>
	<path class="st25" d="M339.49,329.98c3.93,2.17,8.24,0.18,12.28,1.12c-16.14,1.57-32.28,1.69-48.42-0.02
		c3.31-0.98,6.92,0.85,10.14-1.06c0.35-0.35,0.67-0.83,1.17-0.88c8.34-0.86,16.77-0.79,25.01-2.61c0.24-0.05,0.55,0.32,0.81,0.52
		c0.28,0.35,0.57,0.69,0.85,1.04C342.07,330.05,339.8,329.05,339.49,329.98z"/>
	<path class="st26" d="M454.5,316c3.15,1.19,6.34,2.12,9.75,2.34c1.23,0.08,3.66-0.1,2.33,2.62c-1.37,0.54-2.83-2.11-4.15,0.12
		c-1.28,0.95-2.58,0.43-3.78-0.08c-7.04-3.02-14.39-5.08-21.68-7.35c-2.18-2.09,1.61-2.36,1.2-3.92c0.55-0.75,1.47-1.24,2.13-0.69
		c5.19,4.34,5.88,4.17,7.61-2.18c0.08-0.29,0.04-0.62,0.06-0.93c1.33,0.75,1.86,2.17,1.38,3.34
		C447.15,314.61,450.96,315.15,454.5,316z"/>
	<path class="st27" d="M393.71,344.24c-0.33-0.39-0.66-0.78-0.98-1.17c3.14-5.54,9.22-5.72,14.6-8c-1.08-2.81-3.54-5.38-1.99-9.03
		c-3.9,0-7.33,0-10.77,0c5.7-1.4,11.36-2.24,16.73,1.15c-3.38,3.05-3.24,3.84,0.9,5.44c1.27,0.49,3.41,0.17,3.17,2.3
		c-0.18,1.63-1.87,2.29-3.33,2.59C405.59,338.83,399.24,340.39,393.71,344.24z"/>
	<path class="st28" d="M427.51,162.88c0.32-0.59,0.65-1.18,0.97-1.77c9-4.67,16.99-4.32,23.8,4.21c1.42,1.78,4.13,2.54,6.24,3.77
		c0.01,0.28,0.01,0.57,0.01,0.85c-5.32,1.68-9.51-0.53-12.56-4.5c-2.65-3.45-5.48-4.04-9.47-3.13
		C433.61,162.98,430.63,165,427.51,162.88z"/>
	<path class="st29" d="M413.45,354.87c0.33,0.35,0.65,0.69,0.98,1.04c-0.21,3.43-0.26,6.78,4.03,7.93c0.3,0.35,0.6,0.7,0.9,1.06
		c-2.67,2.22-5.49,1.82-7.33-0.67C409.61,360.96,411,357.7,413.45,354.87z"/>
	<path class="st30" d="M436.29,303.96c0.53-3.34,3.45-1.29,5.03-2.24c2.9,0.38,6.07,0.35,6.68,4.3
		C444.32,304.06,440.33,303.89,436.29,303.96z"/>
	<path class="st31" d="M122.82,149.72c-0.48,0.82-0.95,1.64-1.48,2.55c1.16,1.19,2.69-1.44,4.18,0.87
		c-3.51,4.16-8.81,6.44-12.84,10.17c-0.85,0.79-1.75-0.46-2.56-0.61c-2.03-0.37,3.84-4.64-1.7-3.06c-1.86,0.53-1.88-1.71,0.66-3.46
		c1.64-1.13,3.38-2.12,5.13-3.08c2.59-1.42,5.22-2.76,7.84-4.13C122.32,149.22,122.57,149.47,122.82,149.72z"/>
	<path class="st32" d="M168.5,210.7c2.76,1.75-0.22,2.14-0.74,3.11c-15.2,4.9-27.09,13.71-33.69,29.31
		C132.19,233.01,151.28,215.47,168.5,210.7z"/>
	<path class="st33" d="M138.47,246.88c-2.73,4.45-5.65,6.26-9.62,4.14c-3.4-1.8-3.81-6.37-0.77-11.55c-0.52,3.86,0.4,6.47,2.25,8.73
		C133.14,251.63,135.17,247.89,138.47,246.88z"/>
	<path class="st34" d="M115.56,112.5c-0.14,1.76,0.17,3.77-1.77,3.89c-1.83,0.11-2.13-1.82-2.17-3.29
		c-0.04-1.49,0.27-3.42,1.92-3.58C115.67,109.3,115.27,111.43,115.56,112.5z"/>
	<path class="st35" d="M78.22,295.04c1.91,0.01,3.1,0.88,3.26,2.85c0.12,1.42-0.66,2.2-2.05,2.04c-1.64-0.18-3.44-0.58-3.72-2.51
		C75.48,295.86,76.77,295.21,78.22,295.04z"/>
	<path class="st36" d="M217.1,304.1c-0.38,1.61-1.63,1.87-2.98,1.87c-1.12,0-2.53,0.09-2.42-1.58c0.1-1.63,1.57-2.02,2.84-2.05
		C215.62,302.31,216.78,302.72,217.1,304.1z"/>
	<path class="st37" d="M167.42,312.3c-8.54,1.97-14.85,0.47-20.66-4.97c-4.3-4.02-9.83-6.71-14.73-10.1
		c-1.77-1.22-4.97-2.62-2.45-5.17c1.91-1.93,4.86-4.68,8.1-1.3C146.09,299.53,155.28,307.26,167.42,312.3z"/>
	<path class="st38" d="M75.42,323.69c-5.91-0.58-11.82-1.15-17.72-1.77c-1.45-0.15-3.52-0.24-3.51-1.93
		c0.01-1.62,2.04-1.75,3.51-1.9c3.28-0.34,6.56-0.67,9.84-1C70.97,318.34,73.73,320.38,75.42,323.69z"/>
	<path class="st39" d="M426.2,131.08c2.17,3.29,4.41,6.54,6.5,9.89c1.6,2.56,1.59,4.84-1.25,6.77c-4.32,2.93-5.64,7.92-7.95,12.22
		c-3.17,0.84-5.96-1.14-9.1-1.15c-7.03-0.02-13.94,0.75-20.72,2.33c-4.53,1.05-8.99,1.29-13.22-0.25
		c-9.13-3.32-18.07-1.63-26.9,0.66c-5.68,1.47-10.86,1.62-16.5-0.43c-7.74-2.82-15.74-1-23.58,0.39c-3.82,0.68-7.59,0.87-11.3-0.47
		c-15.86-5.71-22.2,7.56-21.31,19.29c0.21,2.79,1.24,5.51,1.51,8.29c0.4,4.11,0.65,8.14-1.95,11.96c-3.12,4.58-4.1,9.91-3.65,15.47
		c-4.82-0.01-9.11,1.3-12.42,5.01c-0.3,0.36-0.62,0.69-0.95,1.02c-4.02,5.62-5.86,11.33-1.37,17.68c3.37,4.77,3.55,9.78,0.29,14.77
		c-0.24,0.45-0.56,0.83-0.96,1.15c-4.79,1.56-7.83,0.03-10.02-5.52c-1.44-3.65-2.47-7.47-4.71-10.76
		c-6.25-7.37-15.28-6.81-20.49,1.08c-1.48,2.24-2.68,4.95-5.64,5.85c-15.6-19-19.73-41.25-18.18-65.02
		c0.36-5.46,1.4-10.87,2.13-16.31c1.88-1.62,3.38-0.13,5,0.6c4.61,2.09,9.38,3.29,14.48,2.61c0.46-0.14,0.94-0.23,1.41-0.3
		c4.78-0.01,8.63-1.97,11.53-5.71c2.45-3.16,1.76-6.13-1.85-8.48c-3.68-1.37-6.05-3.57-4.84-7.9c0.67-2.39,2.06-4.2,4.62-4.72
		c2.58-0.53,4.72,0.41,5.9,2.7c1.6,3.11,3.97,4.44,7.3,3.7c3.21-0.72,4.21-3.58,5.08-6.23c3.74-11.44-3.53-26.48-14.82-30.77
		c-1.4-0.53-2.9-0.76-3.88-2.05c-2.12-6.94,1.86-14.52,8.82-16.51c2.03-0.58,4.19-0.69,6.29-1.02c0.42,3.07-1.24,5.63-2.08,8.38
		c-0.27,0.3-1.17-0.22-0.9,0.14c6.15,7.91,14.56,12.47,23.94,15.14c11.63,3.31,23.53,3.59,35.44,1.69c2.29-0.36,4.69,0.3,6.84-0.87
		c0.36-0.2,0.95,0.02,1.09-0.59c-0.51-0.03-0.96-0.21-1.39-0.47c-1.6-4.88,0.62-8.78,3.23-12.59c1.78,1.49,3.59,2.95,5.34,4.47
		c2.85,2.47,3.39,5.31,2.13,8.96c-3.05,8.85-3.2,17.82,0.74,26.83c0-2.14,0-4.27,0-6.41c0-2.16-0.04-4.33,0.02-6.49
		c0.27-10.45,1.16-11.13,11.25-8.34c14.88,4.11,26.7,13.2,37.85,23.36c1.3,1.18,2.61,2.35,4.21,3.23
		c-3.27-5.82-8.17-10.15-13.52-13.88c-3.03-2.11-4.18-4.24-2.86-7.76c0.45-1.19,0.34-2.64,0.27-3.95c-0.4-7.29,1.56-9.43,8.88-9.59
		c1.85-0.04,3.66,0.11,5.38,0.85c0.21,2.55,0.27,5.02-2.74,6.12c-0.25,4.35,3.17,6.68,5.65,9.17
		c12.54,12.55,27.74,17.39,45.31,14.64c0.66-0.1-0.25,0.05,0.35-0.23c0.09-0.04-0.17-0.59-0.41-0.83
		C422.54,137.8,423.31,134.18,426.2,131.08z"/>
	<path class="st40" d="M437.61,293c-1.06,8.02-5.81,13.1-13.14,15.75c-3.08,1.12-5.75,2.35-7.33,5.33c-1.9,3.59-5.78,4.1-8.93,5.76
		c-6.23,2.19-12.76,0.26-19.12,1.46c-14.92,2.81-29.72-1.23-44.62-1.45c-14.79-0.22-29.9-0.44-44.26-5.46
		c-3.29-1.15-6.53-2.46-9.85-3.56c-1.34-0.44-2.95-0.93-3.11-2.82c0.78-1.92-0.74-4.43,1.52-5.98c1.5-0.13,2.53-1.2,3.09-2.29
		c5.45-10.6,15.25-19.11,15.49-32.21c0.04-1.89,0.87-3.66,2.13-4.97c8.64-8.97,9.35-20.68,12.27-31.94
		c2.68-10.31,7.01-20.16,7.78-31.03c0.19-2.7,2.41-4.79,5.69-4.32c4.07,0.58,8.03-0.13,11.75-1.48c6.58-2.4,13.21-2.15,19.66-0.35
		c9.46,2.64,18.74,2.07,28.1-0.04c6.71-1.51,13.4-2.12,20.27-0.69c6.18,1.29,12.25-0.13,18.2-1.81c5.34-1.5,10.64-2.27,16.22-1.15
		c7.21,1.44,14.23-0.45,21.2-2.05c3.3-0.76,6.63-0.94,9.92-0.6c4.76,0.5,6.53,3.52,5.04,8.11c-1.19,3.68-3.15,7-5.38,10.1
		c-1.87,2.6-2.84,5.68-2.25,8.47c1.53,7.18-1.32,12.84-5.61,17.84c-5.45,6.36-8.24,13.57-8.73,21.78c-0.18,2.98-1.31,5.37-3.32,7.56
		c-2.36,2.56-4.47,5.35-6.68,8.04c-6.9,0.84-13.79,0.93-20.64-0.35c-1.37-1.23-0.35-1.85,0.63-2.48
		c6.18-1.03,10.91-3.86,12.65-10.33c0.59-2.44,2-4.54,2.8-6.91c3.67-10.9,1.72-20.63-6.04-29.08c-2.38-2.6-4.44-5.01-0.95-9.46
		c-2.79,1.63-3.25,3.88-5.35,4.02c-1.19-0.04-2.22-0.61-3.32-0.97c-3.43-1.13-7.12-2.01-5.55-7.54c-1.22,3.63-2.13,6.5-6.55,6.4
		c-4.07-0.1-7.28-0.74-8.74-5.59c2.12,5.45-1.1,7.65-4.85,9.65c-1.6,0.85-3.09,1.93-4.49,3.12c-1.4,1.19-2.85,2.49-4.84,1.14
		c-2.08-1.41-2.63-3.29-1.59-5.62c0.25-0.57,0.64-1.16,0.25-1.93c-1.73,0.68-1.97,3.02-3.84,3.5c-3.33-0.11-6.35-1.1-9-3.15
		c-0.71-0.9-0.64-2.08-1.13-3.18c-0.8,1-0.49,2.38-1.34,3.27c-2.14,2.36-5.17,1.47-7.77,2.15c-3.39,0.42-3.78-2.54-5.4-4.68
		c1.69,4.24-0.01,6.63-3.45,8.97c-4.96,3.36-8.61,8.08-10.83,13.8c-0.76,1.96-1.2,4.15-2.9,5.65c-4.44,0.5-8.89-0.57-13.37,0.41
		c-5.4,1.18-9.59,3.52-11.02,9.35c1.53-6.23,6.09-8.69,11.83-9.26c4.78-0.48,9.6-0.67,14.09,1.87c6.64,3.75,7.63,9.59,2.43,15.37
		c-0.02,0.02,0.17,0.27,0.31,0.35c0.14,0.08,0.32,0.07,0.52,0.11c4.04,4.41,7.94,8.9,13.79,11.04c10.99,4.02,20.82,1.98,29.85-5.23
		c3.83-3.05,5.13-2.72,8.34,1.55c0.45,2.85-2.31,2.15-3.51,3.17c0.74,3.21,3.69,3.05,5.91,3.55c7.69,1.71,15.5,1.74,23.29,0.84
		c3.98-0.46,7.95-0.83,11.93-0.51c6.38,0.5,9.01,3.55,8.96,10.01c-3.04,5.3-7.7,7.41-13.69,7.22c-12.92-0.4-25.23-3.34-37.01-8.59
		c-1.78-0.79-3.53-1.63-6.03-2.79c3.84,5.13,9.43,7.6,11.52,13.1c-1.71,1.89-4.08,2.14-6.35,2.29c-14.32,0.98-28.01-1.1-40.44-8.82
		c-7.17-4.74-13.36-10.41-17.13-18.35c-0.43-0.9-0.92-1.77-1.34-2.67c-0.72-1.57,1.34-4.32-1.98-4.76c-3.28-0.44-7.11-1.56-9.63,0.8
		c-5.91,5.54-11.99,11.22-13.86,19.64c-2.2,9.9,2.38,17.37,9.12,23.9c1.42,1.38,3.25,2.32,4.54,3.88c2.69,3.94,6.4,5.32,11.12,4.89
		c2.34-0.21,5.1-0.67,6.63,2.12c0.44,0.9,0.96,1.58,2.12,1.79c8.2,1.53,17.61-2.94,21.5-10.29c2.33-2.55,2.88-5.97,4.4-8.91
		c0.79-1.53,1.61-3.1,3.72-2.51c2.25,0.63,2.41,2.38,2.23,4.38c-0.21,2.27-2.4,5.01-0.76,6.6c2.1,2.04,5.55,1.75,8.56,1.77
		c6.15,0.02,6.28,0.06,7.21-6.02c0.64-4.17,2.63-6.56,6.89-7.32c2.18-0.39,4.73-0.26,6.36-2.35c-0.71-2.05-3.54-2.4-3.99-5.44
		C417.88,290.15,427.67,291.88,437.61,293z"/>
	<path class="st41" d="M427.51,162.88c4-0.8,8.03-1.47,11.98-2.46c2.18-0.54,4.08-0.43,5.21,1.52c3.11,5.37,7.95,7.54,13.83,8.01
		c5.37,7.95,14.17,10.49,22.62,13.93c-11.93-0.15-22.91,6.65-35.01,2.61c-4.82-1.61-10.18,0.98-15.12,2.32
		c-5.87,1.6-11.51,2.58-17.62,0.82c-5.2-1.49-10.68-0.25-15.8,0.99c-11.07,2.68-21.97,3.2-33.03,0.01c-4.5-1.3-9.35-1.65-13.79,0.09
		c-14.61,5.73-26.45,0.2-36.96-9.27c-5.6-5.05-11.38-8.98-18.83-10.57c-2.88-0.61-7.55-1.71-6.68-5.22c0.94-3.79,5.47-2.96,8.7-1.98
		c9.1,2.77,18.13,1.42,27.17-0.14c3.52-0.61,6.8-0.61,10.25,0.72c7.75,2.99,15.79,2.35,23.62,0.45c8.79-2.13,17.4-2.65,26.02,0.52
		c2.27,0.84,4.57,0.62,6.89,0.08c10.24-2.4,20.51-4.16,31.09-2.29C423.8,163.34,425.69,162.95,427.51,162.88z"/>
	<path class="st42" d="M288.62,300.02c-2.24-5.7-0.24-11.86-1.9-17.64c-0.5-1.75-0.68-3.61-1.28-5.31c-1.78-5.02-4.27-6.06-9.2-4.03
		c-4.45,1.83-7.69,5.11-10.69,8.72c-1.26,1.51-2.67,2.89-4.01,4.33c-2.84-3.03-2.55-6.25-0.55-9.54c0.95-1.57,2.11-3,3.45-4.24
		c4.93-4.56,7.39-9.99,6.73-16.85c-0.63-6.49,1.01-12.31,5.01-17.74c5.44-7.4,4.37-16.28,4.39-24.82c-0.3-3.72,0.81-6.96,2.51-10.31
		c3.12-6.16,2.83-12.91,1.85-19.55c-0.57-3.83-0.93-7.56,0.1-11.36c0.55-2.03,1.2-3.18,3.23-1.27c0.6,0.56,1.29,1.3,2.02,1.41
		c12.68,1.99,20.91,11.59,31.09,17.88c4.81,2.98,9.59,4.49,5.31,11.47c-1.13,1.85-0.28,4.9-0.41,7.39c-0.17,3.32,0.11,6.99-1.9,9.67
		c-5.21,6.93-5.75,15.06-6.76,23.12c-0.65,5.22-2.15,10.12-5.59,14.18c-4.78,5.65-7.25,12.23-8.42,19.42
		c-0.21,1.31-0.33,2.75-0.96,3.85C298.41,286.15,292.56,292.45,288.62,300.02z"/>
	<path class="st43" d="M280.57,212.9c1.84,10.01,2.27,19.81-4.89,28.23c-3.05,3.59-3.51,7.86-3.12,12.16
		c0.78,8.54-1.43,15.67-8.35,21.12c-3.96,3.12-4.27,7.22-2.66,11.68c-0.61,0.91-1.23,1.81-1.84,2.72c-1.71-0.83-2.42-2.39-2.98-4.07
		c0.73-1.87-0.72-3.15-1.27-4.67c0.85-1.66,0.28-3.34,0.06-5.01c1.21-0.24,3.12,0.73,3.05-1.74c0.16-0.47,0.31-1,0.72-1.28
		c7.61-5.09,10.02-12.25,8.92-21.12c-0.59-4.76,1.09-9.56,3.63-13.25c3.98-5.77,4.6-11.89,4.45-18.41c0.14-0.85,0.43-1.63,1.11-2.2
		c1.63-0.49,1.76,1.55,3.18,1.92C280.57,216.85,280.57,214.87,280.57,212.9z"/>
	<path class="st44" d="M432.07,267.87c7.1,2.06,14.39,0.62,21.58,1.13c-0.04,0.94-0.08,1.88-0.11,2.82
		c-6.33-2.64-12.88-2.18-19.46-1.41c-9.95,1.17-19.74,0.16-29.42-2.31c0.52-1.47,3.18-0.99,2.9-3.19c1.27-0.96,2.57-0.53,3.77,0.05
		c5.6,2.71,11.42,3.32,17.49,2.14C429.97,266.88,431.13,266.98,432.07,267.87z"/>
	<path class="st45" d="M277.39,217.05c-0.03,0.66-0.07,1.32-0.1,1.98c-4.75-0.3-9.07,2.57-13.87,1.86
		c3.64-5.13,7.57-6.55,13.34-4.85C276.97,216.39,277.18,216.72,277.39,217.05z"/>
	<path class="st40" d="M262.47,326.99c-3.3,6.77-4.72,14.15-6.89,21.29c-0.37,1.23-0.08,2.28,0.89,3.16
		c2.2,1.99,3.07,4.31,3.25,7.44c0.26,4.74,6.62,7.34,10.2,4.31c2.22-1.87,4.02-3.09,6.33-0.59c2.21,2.4,1.55,5.09-0.08,7.31
		c-2.4,3.27-5.65,3.99-9.19,1.7c-1.24-0.8-2.29-1.91-3.41-2.9c-1.78-1.57-3.59-3.1-6.22-2.05c-2.65,1.06-3.62,3.39-3.97,5.91
		c-0.41,3,0.28,5.95,0.85,8.91c0.54,2.78,0.87,5.61,0.25,8.44c-0.34,1.54-1.01,2.87-2.78,3.12c-2.1,0.29-2.98-1.18-3.59-2.79
		c-0.73-1.9-0.6-3.9-0.51-5.92c0.14-3.15,0.32-6.34-0.02-9.46c-0.57-5.33-3.54-6.42-7.82-3.08c-2.82,2.21-4.49,5.33-6.29,8.31
		c-1.84,3.05-4.07,5.75-7.28,7.36c-2,1.01-4.33,1.35-5.97-0.64c-1.8-2.19,0.22-3.8,1.51-5.1c2.68-2.72,5.79-5.02,8.43-7.77
		c1.85-1.92,3.44-4.31,1.6-7.15c-1.86-2.88-4.67-2.13-7.2-1.38c-3.33,0.99-6.31,3.02-9.85,3.47c-1.93,0.24-3.94,0.09-4.65-1.96
		c-0.8-2.31,1.33-3.08,2.87-3.98c0.71-0.41,1.51-0.85,2.3-0.93c10.82-1.07,18.79-7.77,27.26-13.57c5.09-3.49,5.76-9.53,8.67-14.26
		c0.59-0.96,0.8-2.17,1.19-3.26c3.78-8.27,7.56-16.54,11.34-24.81c0.55-1.2,1.1-2.41,1.63-3.62c1.06-2.43,3.19-2.36,5.04-1.64
		c2.32,0.9,0.47,2.58,0.05,3.71C267.66,312,264.6,319.33,262.47,326.99z"/>
	<path class="st46" d="M278.73,301.55c-3.94-3.34-8.23-4.12-12.78-3.19c-1.38,0.28-4.48,0.2-2.6,3.59c0.53,0.96-0.57,3.04-2.01,2.56
		c-2.09-0.7-4.59-1.73-4.51-4.62c0.04-1.44,0.44-3.06,1.2-4.27c4.45-7.06,9.5-13.71,15.97-19.02c5.62-4.62,8.64-3.31,10.05,3.83
		c1.49,7.56,1.66,15.2,1.67,22.87c0,2.25-0.11,4.3-2.83,5.14c-3.31,1.02-6.58,0.95-9.82-0.01c-1-0.3-0.62-1.45-0.26-2.16
		c0.8-1.55,0.92-3.67,3.14-4.13C276.71,301.99,277.52,302.88,278.73,301.55z"/>
	<path class="st47" d="M340.49,327.06c-8.75,3.28-17.86,3.18-26.99,2.97c-14.82-0.48-28.67-4.19-41.42-12.57
		c4.12-2.59,7.85-5.73,12.43-7.53c2.79-1.19,5.27,0.46,7.53,1.37c7.35,2.95,14.67,5.83,22.53,7.13c5.41,6.23,12.48,7.51,20.23,6.73
		c3.06-0.35,6.12-0.71,9.26-1.07C343.84,326.41,341.5,325.92,340.49,327.06z"/>
	<path class="st48" d="M314.28,319.21c-8.59-0.1-15.95-4.23-23.66-7.22c-2.01-0.78-4.08-1.38-6.12-2.07
		c0.93-0.64,1.85-1.28,2.78-1.91c12.02,4.82,24.24,7.94,37.34,9.3c16.65,1.73,33.46,0.49,49.99,3.47c4.08,0.74,8.28,0.1,12.37-0.68
		c7.07-1.35,14.17,0.1,21.25-0.25c0.8,0.06,1.61,0.13,2.42,0.2c-2.55,1.56-5.57,0.95-8.28,1.77c-6.07-0.64-11.73,1.75-17.63,2.35
		c-0.92-1.65-2.22-0.23-3.32-0.42c-6.63,2.95-12.73-0.05-18.94-1.71c-0.61-0.3-1.22-0.59-1.83-0.89c-4.1,1.66-8.42,1.6-12.72,1.67
		c-2.76-2.97-5.6,0.09-8.4-0.13c-7.26-1.92-14.67-2.55-22.15-2.47C316.29,320,315.23,319.77,314.28,319.21z"/>
	<path class="st49" d="M256.72,284.74c1.66,0.87,2.64,2.24,2.98,4.07c-0.82,1.25-1.67,2.48-2.45,3.75
		c-4.08,6.58-3.87,8.07,1.81,13.57c0.69,0.67,1.47,1.28,1.33,2.44c-2.01,0.61-2.39-1.67-3.82-1.86c-1.85-2.53-3.55-5.19-5.59-7.56
		c-2.65-3.08-2.49-5.8,0.3-8.61C253.15,288.66,254.91,286.68,256.72,284.74z"/>
	<path class="st50" d="M245.54,308.98c-2.19-0.23-4.17,0.65-6.9,1.48c2.65-4.81,6.94-7.91,8.15-13.46c3.83,3.71,5.64,8.4,9.68,11.03
		c0.53,1.65,3.63,2.44,2,4.51c-2.27-2.02-4.48-4.19-6.91-6.07c-1.32-1.02-1.97-3.63-4.19-2.72
		C245.13,304.66,245.42,306.97,245.54,308.98z"/>
	<path class="st51" d="M284.91,326.89c-5.31-0.9-10.62-1.83-15.94-2.7c-1.59-0.26-2.55-0.78-1.7-2.59c0.69-1.46,1.15-3.58,3.39-2.58
		c4.91,2.19,9.71,4.64,14.55,6.98C285.12,326.3,285.02,326.59,284.91,326.89z"/>
	<path class="st52" d="M237.48,312.89c2.81-1.05,5.66-2.01,8.03-3.95c3.13,0.36,4.36,3.03,6.13,5.04c0,0.95-0.51,1.64-1.38,1.82
		c-4.27,0.89-8.57,0.88-12.83,0.05c-1.49-0.29-3.25-1.04-0.78-2.72C236.95,313.12,237.22,313.04,237.48,312.89z"/>
	<path class="st53" d="M255.53,319c-0.98,2.23-2.32,3.26-4.99,2.37c-4.18-1.38-8.49-2.38-12.74-3.54c0.06-0.45-0.26-1.11,0.42-1.25
		c5.54-1.16,11.09-0.75,16.61,0.08C255.96,316.83,256.16,317.95,255.53,319z"/>
	<path class="st54" d="M255.53,319c-0.12-0.75,0.13-1.99-0.9-1.94c-5.61,0.29-11.29-0.87-16.83,0.77c-1.42-0.99-3.29-1.77-3.52-3.61
		c-0.13-1.01,1.32-1.23,2.37-1.08c-0.26,0.58-0.58,1.64,0.1,1.61c4.96-0.2,10.02,1.25,14.89-0.76c0.97,0.78,1.57,1.87,3.13,2.04
		C257.01,316.26,256.93,317.57,255.53,319z"/>
	<path class="st55" d="M277.47,312.58c-3.07,1.6-5.17,2.69-7.58,3.95C270.71,310.75,270.75,310.72,277.47,312.58z"/>
	<path class="st56" d="M263.42,220.9c4.55-1.18,8.78-4.71,13.87-1.86c0.12,3.47,0.28,6.94,0.36,10.41c0.03,1.29,0.02,2.52-1.03,3.66
		c-5.86,6.39-8.09,14.15-7.03,22.52c1.18,9.23-4.41,13.65-11.05,17.68c-12.73-2.93-22.55-10.55-31.45-19.61
		c-2.31-2.35-4.41-4.91-6.6-7.38c3.63-3.79,4.72-9.53,10.33-11.9c6.93-2.93,12.08-1.99,16.7,4.14c1.59,4.63,2.95,9.36,5.05,13.79
		c2.05,4.33,5.13,5.09,8.88,2.53l-0.04,0.03c3.75-4.25,4.53-8.99,1.02-13.51c-5.68-7.3-2.96-13.85,1.03-20.48L263.42,220.9z"/>
	<path class="st57" d="M225.24,169.07l-0.3-0.03c-7.13-0.02-13.95-1.02-19.52-6.06c2.84-11.32,9.03-20.94,15.54-30.38
		c0.71-1.03,2.15-1.53,3.12-2.42c2.71-2.49,2.57,0.12,3.14,2.35c4.17-7.02,6.38-13.98,6.45-21.61c2.05-2.22,4.3-0.98,6.24-0.04
		c10.01,4.87,18.75,20.11,12.49,32.84c-1.05,2.13-2.22,4.06-5,4.22c-2.68,0.15-4.74-0.48-6.35-2.92c-3.13-4.75-5.31-5.45-8.18-3.1
		c-3.57,2.92-3.59,6.79-0.05,10.58c1.93,1.49,5.63,1.04,5.55,4.67c-0.08,3.7-2.09,6.45-5.03,8.58
		C230.9,167.52,227.77,167.56,225.24,169.07z"/>
	<path class="st58" d="M255.5,275.06c3.66,1.71,2.99,3.37-0.06,5.01c-39.11-15.71-62.74-53.91-60.8-94.88
		c0.61-12.81,3.91-24.95,9.62-36.4c2.55-5.11,6.84-8.77,11.29-12.4c-16.38,24.54-19.87,51.18-12.3,79.14
		C210.88,243.69,228.03,264.04,255.5,275.06z"/>
	<path class="st59" d="M232.43,153.03c-5.86-3.45-3.01-11.21,2.02-13.62c2.89-1.38,4.54,1.61,6.09,3.25
		c6.39,6.79,8.59,6.43,11.86-2.33c4.13-11.07-5.15-27.91-16.34-29.59c-0.77-0.12-1.59,0.11-2.39,0.18c0.23-0.83,0.45-1.66,0.68-2.49
		c16,2.74,26.22,22.7,18.66,36.41c-3.27,5.92-9.41,6.22-12.79,0.46c-1.3-2.22-2.54-3.95-5.38-3.2c-2.42,0.64-3.36,2.63-3.79,4.81
		c-0.51,2.64,0.51,4.49,3.24,5.25c0.45,0.12,0.82,0.52,1.23,0.8C234.51,153.78,233.48,153.58,232.43,153.03z"/>
	<path class="st60" d="M205.43,162.97c6.06,3.44,12.79,4.74,19.51,6.06c-6.29,2.03-11.93-0.16-17.39-2.93
		c-1.04-0.53-1.91-1.17-3.12-1.1C204.77,164.33,205.1,163.65,205.43,162.97z"/>
	<path class="st0" d="M250.55,102.63c3.43-7.06,5.56-14.63,10.1-21.28c8.39-12.29,18.35-22.61,31.75-29.32
		c6.18-3.09,11.97-7.09,19.22-7.68c2.83-0.23,5.65-0.62,8.43-0.2c7.32,1.08,8.79,3.62,7.03,10.93c-1.33,5.52-4.07,10.47-6.24,15.62
		c-4.49,10.66-8.24,21.53-10.92,32.75c-0.87,3.64-1.09,7.51-0.48,11.31c-4.46,3.64-9.92,2.23-14.87,2.48
		c-12.77,0.62-25.25-1.19-36.52-7.82C255.17,107.7,251.58,106.51,250.55,102.63z"/>
	<path class="st61" d="M250.55,102.63c7.93,7.9,18.11,10.89,28.68,12.6c10.04,1.62,20.17,1.58,30.22-0.48
		c0.99-0.14,1.99-0.28,2.98-0.42c1.86-0.46,3.72-0.93,6.18-1.54c-17.31,14.9-67.01,3.07-75.6-17.85c2.73,0.55,2.61,3.47,4.38,4.36
		C248.45,100.4,249.5,101.52,250.55,102.63z"/>
	<path class="st0" d="M374.53,121.92c3.09-1.96,3.98-5.54,6.07-8.25c11.34-14.69,24.67-26.31,43.54-30.1
		c4.31-0.87,8.67-1.06,12.86-0.39c10.36,1.65,10.62,11,6.12,17.44c-4.82,6.91-10.53,13.18-15.57,19.95
		c-4.7,6.31-8.13,13.18-6.99,21.46c-0.92,2.2-2.89,1.98-4.69,1.92c-14.85-0.47-28.02-5.05-38.43-16.09
		C375.9,126.21,374.07,124.6,374.53,121.92z"/>
	<path class="st62" d="M374.53,121.92c8.93,14.38,29.89,23.54,46.03,20.11c0.98-0.05,1.95-0.11,2.93-0.16
		c1.24-0.15,2.48-0.3,3.68-0.44c0.53,1.78-0.75,1.9-1.57,2.15c-19.26,5.79-45.01-5.04-54.32-22.84c-0.42-0.81-1.94-1.74-0.23-2.68
		c0.24-0.13,1.02,0.69,1.54,1.08C373.23,120.05,373.88,120.99,374.53,121.92z"/>
	<path class="st63" d="M149.76,193.86c0.25,5.64-1.13,10.65-4.79,14.91c-4.46,5.19-11.09,5.74-16.37,1.39
		c-8.84-7.29-11.14-24.43-4.54-33.85c4.83-6.88,14.89-6.91,20.04-0.02C148.02,181.52,150.12,187.36,149.76,193.86z"/>
	<path class="st64" d="M175.45,180.41c-1.59,7.58-3.19,15.15-4.74,22.73c-0.33,1.62-1.79,1.76-2.81,2.49
		c-6.51,1.03-10.89-2.65-15.08-6.8c-1.52-1.51-1.12-3.38-1.08-5.15c0.09-5.09-1.16-9.83-3.56-14.3c-2.82-5.24-0.58-10.63,5.19-12.54
		c4.45-1.48,8.53-0.41,12.29,2.02C170.06,171.7,173.04,175.84,175.45,180.41z"/>
	<path class="st65" d="M438.17,309.71c3.21,3.24-2.01,1.51-1.77,3c-0.74,2.59,0.72,3.48,2.91,4.1c5.29,1.49,10.11,4.09,14.85,6.77
		c1.79,1.01,4.59,2.37,1.35,5.02c-1.66,0.36-2.78-0.85-4.15-1.38c-4.9-2.53-9.83-2.39-14.81-0.24c-2.27,0.98-4.58,1.91-7,2.44
		c-1.5,0.33-3.32,1.16-4.11-1.19c0.01-0.35,0.02-0.69,0.02-1.04c4.72,0.46,8.19-2.4,11.91-4.56c0.86-0.5,1.45-1.43,0.15-2.2
		c-2.33-1.37-4.64-3.14-7.95-0.84C430.44,314.23,433.92,311.65,438.17,309.71z"/>
	<path class="st66" d="M362.55,282.88c14.64,8.6,30.38,10.81,46.97,8.05c0.97,0.02,1.94,0.04,2.91,0.06
		c2.3,2.34-0.59,2.63-1.42,2.66c-7.8,0.3-11.44,4.32-11.42,12.01c0,1.87-1.34,2.49-3.08,2.41c-1.99-0.09-3.99-0.07-5.98-0.2
		c-9.51-0.6-9.5-0.61-7.69-9.84c0.23-1.15,1.39-2.59-0.66-3.32c-2.17-0.77-2.3,0.98-3.01,2.28c-1.64,2.97-1.07,7.08-4.64,9.05
		c-1.12,0.62-2.29,1.12-3.58,1.25c-1.51,0.21-3.01,0.69-4.56,0.36c-0.77-0.24-1.37-0.72-1.87-1.33c-1.05-1.62-2.8-2.27-4.38-3.18
		c-4.08-2.34-4.77-4.37-2.48-8.57c1.55-2.84,2.65-5.71,2.61-8.96C360.64,284.38,360.54,282.75,362.55,282.88z"/>
	<path class="st67" d="M317.36,319.15c7.06-0.5,13.99,0.19,20.85,1.91c1.02,0.26,1.99,0.16,1.3,1.61c-3.31,0.48-6.61,0.95-9.92,1.43
		C322.56,326.15,318.64,324.56,317.36,319.15z"/>
	<path class="st68" d="M362.46,322.03c2.13-1.43,4.06,0.09,6,0.53c4.28,0.95,8.58,1.27,12.94,1.19c-4.78,4.77-10.87,3.53-16.65,3.5
		c-0.91,0-1.47,0.5-2.24,0.55c-0.6-0.53-0.48-1.07-0.04-1.62C364.72,324.78,362.13,323.41,362.46,322.03z"/>
	<path class="st69" d="M347.91,322.81c3.93-2.91,8.41-1.68,12.72-1.67c-2.96,4.52-7.5,4.05-11.94,3.66
		C347.67,324.7,347.71,323.66,347.91,322.81z"/>
	<path class="st70" d="M384.73,324.16c5.62-2.7,11.36-4.53,17.63-2.35c-4.62,1.08-9.23,2.16-13.85,3.24
		C387.28,324.63,385.61,326.06,384.73,324.16z"/>
	<path class="st71" d="M317.36,319.15c2.55,5.42,7.39,5.2,12.23,4.96c1.49,1.56,3.52,0.39,5.19,1.04
		c-8.03,2.15-15.39,1.96-20.51-5.94C315.31,319.19,316.33,319.17,317.36,319.15z"/>
	<path class="st72" d="M362.48,326.17c0.01,0.54,0.02,1.08,0.04,1.62c-3.49,0.79-7.01,1.22-10.69,0.58
		C355.46,327.91,357.91,322.63,362.48,326.17z"/>
	<path class="st73" d="M339.49,329.98c0.62-0.63,1.24-1.26,1.85-1.88c2.49-0.29,4.92-3.03,7.65-0.14
		C346.07,330.1,342.73,329.83,339.49,329.98z"/>
	<path class="st74" d="M455.59,328.04c2.28-2.16-0.09-2.61-1.31-3.29c-6.51-3.61-13.34-6.45-20.61-8.29
		c-0.24-2.21,1.6-2.73,2.73-3.76c9.14,1.33,17.47,5.2,26.03,8.36c6.67,4.22,6.7,6.04,0.05,10.82c-6.19,4.45-13.45,6.41-20.59,8.59
		c-3.15,0.96-5.89,2.11-7.34,5.34c-0.39,0.87-1.08,1.95-1.88,2.23c-7.68,2.66-10.95,9.21-14.22,15.79
		c-5.76,0.36-6.88-1.85-4.03-7.93c1.12-1.91,4.46-3.63,2.95-5.66c-1.43-1.92-4.7-0.51-6.95,0.42c-3.51,1.46-6.88,3.27-10.31,4.94
		c-1.7,0.83-3.27,1.57-4.7-0.59c-1.33-2-0.48-3.61,0.79-4.92c2.72-2.8,6.25-4.26,9.94-5.38c0.73-0.22,1.37-0.76,2.79-1.58
		c-4.89-0.47-8.27,1.25-11.34,3.38c-3.41,2.37-3.97,0.79-3.89-2.3c3.4-5.51,9.38-5.67,14.75-7.03c2.32-0.59,4.83-0.63,7.42-3.03
		c-4.5-0.09-8.86,0.22-9.02-4.98c-0.09-2.96,2.43-2.46,4.44-2.02c2.77,4.43,7.11,5.34,11.9,5.55c2.11,0.09,4.2,0.82,6.29,1.25
		c1.66,1.77,3.45,1.7,5.74,1.04C442.15,333.04,448.45,329.3,455.59,328.04z"/>
	<path class="st75" d="M425.45,328.23c3.7,1.23,6.59-1.08,9.68-2.3c5.8-2.29,11.5-2.98,17.18,0.25c1.63,2.35-0.41,2.81-1.86,3.41
		c-4.88,2.02-9.85,3.8-14.8,5.62c-2.47,0.91-4.18,0.28-5.18-2.18c-2.63-1.97-5.72-2.53-8.83-2.34c-3.83,0.23-6.09-1.56-7.77-4.78
		C418.47,323.53,421.89,326.26,425.45,328.23z"/>
	<path class="st76" d="M430.47,333.03c2.3,1.82,4.62,1.84,7.31,0.64c4.06-1.81,8.28-3.28,12.44-4.85c1.26-0.48,2.66-0.76,2.09-2.64
		c1.2,0.44,1.7,2.1,3.28,1.87c-7.39,4.23-15.57,6.46-23.52,9.29c-4.47,1.59,0-3.56-2.57-3.35
		C429.82,333.66,430.15,333.34,430.47,333.03z"/>
	<path class="st45" d="M263.46,220.92c0.38,2.15-0.71,3.96-1.75,5.56c-3.06,4.7-1.95,8.87,0.87,13.18c2.81,4.3,4.47,8.85,1.16,13.78
		c-0.62,0.92-1.22,1.5-2.34,1.47c0.03-0.66-0.19-1.49,0.12-1.96c3.53-5.15,1.32-9.51-1.48-14.07
		C256.36,232.89,258.03,225,263.46,220.92z"/>
	<path class="st60" d="M232.43,153.03c1.03-0.02,2.06-0.04,3.1-0.06c4.33,1.44,5.76,5.88,2.8,9.55c-3.31,4.1-7.34,7.11-13.08,6.55
		c0.34-1.23,1.08-1.83,2.38-2.16c1.74-0.45,3.42-1.22,5.04-2.02c2.79-1.38,3.81-4.19,4.6-6.82
		C238.49,154.01,233.59,155.19,232.43,153.03z"/>
	<path class="st77" d="M261.45,254.88c-2.31,3.65-6.31,3.78-8.6-0.18c-2.87-4.94-4.93-10.3-5.33-16.13c2.91,3.52,3.6,8.05,5.4,12.07
		C254.64,254.51,257.17,256.36,261.45,254.88z"/>
	<path class="st78" d="M365.52,306.07c0.39,0.35,0.78,0.71,1.16,1.06c-3.45,5.55-9.23,5.88-14.72,5.95
		c-2.68,0.03-5.53-0.63-8.31-0.78c-4.63-0.25-8.65-1.85-12.06-4.98c-5.15-3.56-9.5-7.83-12.12-13.63
		c-5.07-11.26-2.13-20.28,8.13-31.39c4.6-4.98,9.09-6.47,15.13-5.12c3.12,0.7,3.24,1.26,2.29,4.22c-0.23,0.73,0.46,1.81,0.84,2.67
		c3.6,8,9.76,13.74,16.68,18.8c-1.2,0.75-1.01,2.01-1.14,3.16c-4.3-0.51-7.27-3.17-9.56-6.48c-3.41-4.93-7.27-9.53-10.21-14.8
		c-2.34-4.2-5.03-4.64-9.04-1.94c-5.62,3.79-9.17,9.17-11.31,15.46c-1.67,4.9-0.47,6.96,4.45,8.47c1.77,0.54,3.52,1.13,4.92,2.36
		c1.89,1.66,3.96,2,6.46,1.88c8.64-0.42,15.21,5.99,15.04,14.73c-0.04,2.1,0.76,2.17,2.28,2.08c1.84-0.11,3.62-0.4,5.35-1.1
		C361.62,305.94,363.48,304.99,365.52,306.07z"/>
	<path class="st79" d="M432.07,267.87c-8.57,2.33-16.72,1.07-24.52-2.96c-2.44-2.79-4.34-3.08-7.55-0.24
		c-13.61,12.05-33.55,8.87-44.44-6.71c-0.37-1.78,0.92-1.4,1.89-1.45c3.83,3.35,6.98,7.37,11.91,9.58
		c11.32,5.06,23.17,2.72,31.18-6.67c1.17-1.37,2.04-3.07,3.91-3.72c0.87-0.02,1.38,0.46,1.72,1.19c0.3,2.73,1.88,4.36,4.25,5.65
		c10.52,5.72,22.85,3.73,31.38-5.21c8.02-8.4,9.2-21.29,3.69-31.35c-2.6-4.74-7.56-6.86-10.3-11.21c0.2-0.86,0.55-1.44,1.55-0.9
		c1-1.5,2.08-2.97,2.99-4.53c0.67-1.14,1.28-1.94,2.69-0.99c1.18,0.8,1.68,1.88,0.61,2.87c-3.84,3.57-1.16,5.64,1.36,8.32
		c9.09,9.65,10.06,22.66,3.02,36.1c-2.75,5.72-7,9.66-13.24,11.29C433.49,267.25,432.78,267.56,432.07,267.87z"/>
	<path class="st80" d="M469.71,197.85c5.1,0.08,7.92,3.84,6.37,8.68c-1.61,5.03-5.16,8.52-9.72,10.81
		c-4.7,2.36-10.27-1.98-9.86-7.42C456.96,204.08,463.86,197.76,469.71,197.85z"/>
	<path class="st81" d="M354.52,200.9c4.57,0.04,7.52,4.52,5.73,8.7c-2.03,4.75-7.61,8.7-11.92,8.45c-4.59-0.27-6.63-2.83-5.8-7.28
		C343.35,206.35,350.01,200.87,354.52,200.9z"/>
	<path class="st82" d="M436.76,213.87c-0.43,0.3-0.85,0.6-1.28,0.9c-1.99,1.25-3.84,0.01-5.68-0.43
		c-8.02-1.91-15.32-0.21-22.12,4.18c-2.94,1.9-4.08,4.11-1.58,7.33c1.29,1.67,2.37,3.6,2.12,5.92c-0.21,0.76-0.62,1.32-1.45,1.49
		c-0.32-0.07-0.74-0.12-0.88-0.37c-3.42-5.79-8.42-10.19-13.08-14.9c-0.11-0.78,0.13-1.47,0.58-2.09c0.8-1.44,1.63-2.87,2.38-4.34
		c0.61-1.21,1.36-1.86,2.74-1.09c1.28,0.72,1.47,1.68,0.69,2.89c-0.54,0.84-1,1.72-1.6,2.51c-1.04,1.37-0.73,2.27,0.63,3.28
		c1.3,0.97,2.19,1.71,3.74,0.21c1.9-1.83,3.97-3.6,6.27-4.83c3-1.6,4.79-3.18,2.54-6.65c-0.96-1.47-0.91-2.89,1.15-3.44
		c1.87-0.5,2.34,0.82,2.53,2.21c0.42,2.95,1.32,4.68,5.03,4.25c3.63-0.42,7.11-0.07,6.53-5.33c-0.16-1.42,0.47-2.18,2.05-1.98
		c1.24,0.16,2.04,0.97,1.6,1.97c-2.57,5.77,2.21,5.9,5.42,7.29C435.67,213.11,436.2,213.52,436.76,213.87z"/>
	<path class="st83" d="M303.24,309.11c-3.63-0.09-7.37,0.7-8.1-2.72c-0.71-3.32,2.64-4.93,5.28-6.45c2.85-1.64,5.87-2.12,9.12-1.92
		c2.51,0.16,3.21,2.21,4.22,3.81c1.24,1.95-0.62,3.12-1.76,4.12C309.29,308.33,306.18,309.87,303.24,309.11z"/>
	<path class="st84" d="M357.4,257.09c-0.77-0.05-1.47,0.05-1.84,0.87c-1.1,0.52-1.86,1.94-3.4,1.47c0-0.43-0.11-0.92,0.02-1
		c3.96-2.29,6.44-5.42,5.04-10.2c-1.34-4.56-5.27-6.27-9.44-7.04c-4.08-0.76-8.32-0.93-12.31,0.49c-4.42,1.58-7.43,4.73-8.57,10.58
		c-1.43-6.56,1.34-9.81,5.7-11.93c6.05-2.95,12.45-3.05,18.92-1.56c0.72-0.46,1.48-0.49,2.28-0.21c3.28,2.35,6.45,4.89,7.11,9.17
		C361.49,251.41,361.58,255.11,357.4,257.09z"/>
	<path class="st85" d="M331.59,307.33c11.21,5.6,22.52,6.89,33.98,0.72c0.42-0.22,0.74-0.61,1.11-0.92c1.31-0.25,2.2-1.84,3.79-1.21
		c2.42,1.58,1.96,3.66,0.04,4.8c-6.45,3.83-13.2,6.87-21.01,4.27c-1.74-3.83-5.23-1.98-7.72-1.88
		C336.9,313.32,333.79,311.37,331.59,307.33z"/>
	<path class="st86" d="M353.52,238.92c-0.66-0.05-1.33-0.09-1.99-0.14c1.69-8.85,6.38-15.77,13.85-20.66
		c2.52-1.65,3.62-3.01,1.86-5.8c-0.93-1.48-1.43-3.41,0.9-3.99c2.14-0.53,1.99,1.64,2.48,2.94c0.54,1.42,0.2,3.53,2.67,3.47
		c0.96-0.34,1.36,0.15,1.48,1.02c-0.68,1.48-2.13,2-3.44,2.62c-7.63,3.62-13.26,9.01-15.67,17.35
		C355.29,236.98,354.78,238.22,353.52,238.92z"/>
	<path class="st87" d="M412.43,310.01c-2.45,0.02-4.87-1.01-4.58-3.45c0.47-3.91,4.2-4.17,7.29-4.55c2.19-0.27,3.72,1.02,3.31,3.24
		C417.87,308.4,415.65,309.96,412.43,310.01z"/>
	<path class="st88" d="M349.5,314.99c6.22,0.53,12.04-1.2,17.67-3.49c2.16-0.88,5.47-1.82,3.3-5.58c1.35,0.04,2.71,0.09,4.06,0.13
		c-1.93,8.14-9.1,9.03-15.4,10.76c-2.61,0.72-5.57,0.2-8.37,0.14C349.57,316.93,348.16,316.77,349.5,314.99z"/>
	<path class="st89" d="M343.57,225.51c-0.2,2.39-2.75,3.15-5.49,3.46c-1.55,0.18-3.46-0.29-3.31-2.13c0.27-3.41,3.05-4.44,5.98-4.86
		C342.51,221.72,343.66,222.45,343.57,225.51z"/>
	<path class="st90" d="M310.49,289.42c-0.59,2.33-2.13,3.9-4.52,4.47c-1.35,0.32-3.08-0.08-3.04-1.62c0.07-2.8,2.21-4.13,4.73-4.84
		C309.31,286.97,310.09,287.78,310.49,289.42z"/>
	<path class="st44" d="M434.2,266.94c5.27-2.76,9.63-6.57,13.24-11.29C446.27,262.14,440.63,266.95,434.2,266.94z"/>
	<path class="st91" d="M381.45,212.87c0.66-1.93-1.53-5.61,1.64-5.6c2.81,0.01,0.94,3.64,1.48,5.58c0.49,0.78,0.61,1.56,0.04,2.36
		c-1.06,0.7-2.12,0.69-3.19,0.02C380.82,214.43,380.94,213.65,381.45,212.87z"/>
	<path class="st92" d="M384.53,214.95c0.01-0.7,0.03-1.4,0.04-2.1c2.94,1.02,5.89,2.04,8.83,3.05c-0.04,0.82-0.08,1.64-0.13,2.45
		C389.91,218.38,386.47,218.58,384.53,214.95z"/>
	<path class="st93" d="M349.19,248.02c-1.14-0.15-2.2-0.52-2.27-1.62c-0.08-1.28,1.04-1.47,2.07-1.41c1.05,0.06,2.05,0.55,2.14,1.61
		C351.24,247.93,350.07,247.98,349.19,248.02z"/>
	<path class="st94" d="M344.08,251.5c0.06,0.76-0.23,1.25-1.01,1.37c-1.23,0.19-2.35-0.01-2.93-1.23c-0.49-1.04,0.24-1.55,1.13-1.66
		C342.5,249.84,343.52,250.3,344.08,251.5z"/>
	<path class="st92" d="M381.45,212.87c0.02,0.71,0.03,1.41,0.05,2.12c-2.09,1.93-4.32,2.85-6.94,0.95c-0.43-0.4-0.86-0.8-1.29-1.2
		C375.73,212.94,378.93,214.4,381.45,212.87z"/>
	<path class="st95" d="M337.58,245.96c-0.84-0.09-1.8-0.28-1.74-1.29c0.07-1.14,1.1-1.58,2.11-1.6c1.02-0.02,2.11,0.41,1.95,1.61
		C339.75,245.83,338.61,245.98,337.58,245.96z"/>
	<path class="st96" d="M328.62,169c4.01-0.22,7.98,0.04,11.79,1.48c1.84,0.7,3.23,1.81,3.59,3.8c0.4,2.24-1.34,3.32-2.81,4.31
		c-4.39,2.95-17.61,1.79-21.52-1.76c-1.44-1.3-2.45-2.72-1.67-4.81c0.73-1.93,2.07-2.98,4.13-3.02
		C324.29,168.97,326.46,169,328.62,169z"/>
	<path class="st97" d="M419.09,175.92c2.94,0.44,5.9,0.78,8.82,1.35c1.69,0.33,3.18,1.3,3.52,3.12c0.36,1.94-1.03,3.01-2.49,3.92
		c-4.16,2.62-15.94,1.9-19.61-1.21c-2.38-2.02-2.47-3.91,0.52-5.32C412.75,176.42,415.84,175.83,419.09,175.92z"/>
	<path class="st98" d="M359.32,178.86c2.67-0.01,5.33,0.15,7.88,1c1.48,0.49,2.77,1.38,2.86,3.08c0.08,1.52-1.2,2.3-2.3,3.02
		c-3.36,2.17-12.97,0.71-15.46-2.27c-1.65-1.98-0.96-3.32,1.13-4.25C355.32,178.59,357.34,178.89,359.32,178.86z"/>
	<path class="st99" d="M396.22,178.94c-3.06,0.13-5.95-0.55-8.66-1.91c-1.16-0.58-2.59-1.29-2.42-2.81c0.16-1.44,1.56-2.1,2.84-2.52
		c3.94-1.3,7.87-1.13,11.67,0.48c1.84,0.78,3.96,1.92,3.46,4.26c-0.5,2.34-2.84,2.46-4.89,2.5
		C397.54,178.95,396.88,178.94,396.22,178.94z"/>
	<path class="st100" d="M431.91,171.94c-1.99-0.41-4.97,0.74-5.02-2.53c-0.05-3.05,2.62-3.47,5.01-3.4c2.64,0.08,6.82-1,6.94,2.62
		C438.97,172.76,434.55,171.43,431.91,171.94z"/>
	<path class="st101" d="M319.6,209.67c0.11,5.79-1.14,10.75-3.79,15.29c-1.4,2.41-3.33,4.36-6.49,3.35
		c-2.94-0.95-4.91-2.98-4.83-6.24c0.18-7.51,0.81-14.96,4.02-21.91c0.92-1.99,2.12-4.03,4.64-4c2.66,0.03,4.09,1.97,5.04,4.24
		C319.51,203.53,319.95,206.81,319.6,209.67z"/>
	<path class="st102" d="M305.64,255.44c-0.1,6.45-2.65,11.93-6.84,16.68c-1.43,1.62-3.22,3.04-5.67,2.16
		c-2.35-0.84-3.83-2.58-4.46-4.99c-1.63-6.24,3.55-17.98,9.18-20.85C302.52,246.07,305.68,248.9,305.64,255.44z"/>
	<path class="st103" d="M287.34,221.16c0.44-2.83,0.69-6.27,4.39-6.65c2.4-0.24,3.04,2.27,2.78,4.38c-0.36,2.98-1.05,6.31-4.54,6.77
		C287.23,226.02,287.46,223.26,287.34,221.16z"/>
	<path class="st104" d="M281.7,259.51c-0.28,2.32-0.45,4.91-3.37,5.37c-1.92,0.3-1.9-1.54-1.76-2.84c0.25-2.39,0.99-4.92,3.5-5.51
		C281.93,256.1,281.4,258.3,281.7,259.51z"/>
	<path class="st105" d="M299.44,321.98c2.45-4.02,5.67-0.59,8.45-0.63c1.49-0.03,0.5,2.46,0.67,3.8c0.08,0.61-0.36,1.78-0.81,1.49
		c-2.13-1.38-4.38-1.34-6.78-1.41c-1.47-0.05-1.38-2-1.46-3.32L299.44,321.98z"/>
	<path class="st106" d="M299.51,321.9c-1.73,0.32-0.43,2.08-1.55,2.98c-1.02-1.51-1.61-4.89-4.57-1.22
		c0.81-2.22-0.07-5.16,2.68-5.38c1.56-0.13,4.09,0.78,3.36,3.69L299.51,321.9z"/>
	<path class="st107" d="M289.55,315.92c-0.15,0.07-0.3,0.13-0.45,0.21c-1.71,0.98-3.06,4.16-5.08,2.58
		c-1.64-1.28,0.08-3.92,0.74-6.01c1.77,1.08-0.1,2.86,1.13,3.94c1.17-0.06,1.73-1.95,3.29-1.43c0.11,0.04,0.22,0.2,0.25,0.32
		c0.05,0.15,0.02,0.33,0.02,0.49L289.55,315.92z"/>
	<path class="st108" d="M289.45,316.01c1.82-0.3,2.65,0.25,1.2,1.85c-1.08,1.19-0.26,4.36-1.76,3.75c-2.97-1.21,0.26-3.08,0.44-4.74
		c0.04-0.32,0.14-0.64,0.22-0.96C289.55,315.92,289.45,316.01,289.45,316.01z"/>
	<path class="st14" d="M140.81,187.28c0.04,3.51-1.02,6.35-4.42,6.45c-3.81,0.11-3.94-3.27-4.16-6.13
		c-0.24-3.11,0.56-6.19,3.94-6.39C140.17,180.97,140.31,184.7,140.81,187.28z"/>
	<path class="st109" d="M162.6,185.23c0.06,3.52-1.5,5.42-4.39,5.3c-3.79-0.16-4.74-3.22-4.71-6.34c0.02-2.44,0.4-5.18,3.67-5.55
		C159.84,178.34,162.62,182.11,162.6,185.23z"/>
	<path class="st110" d="M365.52,306.07c-4.36,1.42-8.55,3.37-13.34,3.2c-1.71-0.06-3.12-0.45-2.01-2c3.43-4.82-0.08-8.11-2.66-10.89
		c-2.59-2.79-6.3-5.27-10.55-4.16c-2.84,0.74-4.73,0.31-6.53-1.86c-1.21-1.46-3-1.95-4.81-2.39c-5.95-1.43-7.94-4.99-5.58-10.58
		c2.59-6.13,5.92-11.86,11.69-15.61c4.29-2.79,8.3-3.81,10.91,1.89c2.5,5.46,6.85,9.65,9.81,14.78c2.08,3.6,6.11,4.9,8.97,7.58
		c0.6,3.52-0.9,6.5-2.74,9.23c-2.45,3.64-1.34,5.69,2.44,7.08C362.99,303.03,365.62,302.98,365.52,306.07z"/>
	<path class="st111" d="M372.54,303.99c-4.57-1.05-8.48-2.89-12.33-4.85c-1.3-0.66-0.41-1.65-0.08-2.55
		c3.24-8.66,3.27-8.74,12.08-5.02c1.87,0.79,5.3,0.72,5.13,3.06c-0.22,2.99-2.04,5.88-3.31,8.76
		C373.85,303.8,372.89,303.86,372.54,303.99z"/>
	<path class="st112" d="M391.33,295.89c0.89,0,1.49-0.19,1.86,0.03c1.72,1.02,5.51-2.17,5.35,2.62c-0.22,6.51-1.17,7.61-6.37,7.4
		c-0.66-0.03-1.31-0.1-1.97-0.16c-6.77-0.58-7.96-2.87-4.68-8.87C387.18,293.87,389.75,296.77,391.33,295.89z"/>
	<path class="st113" d="M335.6,297.68c-0.6-2.94,0.1-3.81,2.38-3.83c4.31-0.03,9.02,3.22,10.2,7.39c1.58,5.62-1.48,8.97-7.21,7.81
		c-8.47-1.72-14.17-6.8-17.7-14.58c-1.46-3.21,0.07-3.89,2.8-3.59C330.04,291.32,332.31,294.36,335.6,297.68z"/>
	<path class="st114" d="M374.56,215.93c2.31-0.32,4.63-0.63,6.94-0.95c1.01-0.01,2.02-0.02,3.03-0.03c2.92,1.13,5.83,2.27,8.75,3.4
		c6.57,2.94,10.37,8.4,13.36,14.61c4.61,6.33,3.62,17.8-1.99,23.03c-12.48,18.32-36.04,18.87-47.24,1.11
		c4.1-6.56,3.59-10.64-2.12-15.93c-0.73-0.68-1.49-1.25-1.76-2.25C356.03,227.13,363.22,219.64,374.56,215.93z"/>
	<path class="st115" d="M407.55,231.94c-0.29-2.77-1.9-4.99-3.63-6.89c-2.17-2.38-1.47-3.84,0.59-5.62
		c9.36-8.09,19.79-8.76,30.97-4.67c10.77,6.62,16.38,17.24,14.62,27.67c-2.06,12.2-10.1,21.39-21.1,23.84
		c-7.82,1.74-15.11,0.28-21.88-4.05c-2.16-1.38-3.08-2.81-1.53-5.14c0.97-4,3.22-7.62,3.1-11.96c-0.06-2.26,1.4-2.83,3.36-1.55
		c0.84,0.55,1.54,1.28,2.33,1.89c5.53,4.25,10.48,3.72,14.8-1.57c3.3-4.04,2.79-10.32-1.13-14.02c-4.02-3.79-10.56-3.44-14.85,0.78
		c-0.72,0.71-1.25,1.55-1.84,2.36c-0.67,0.91-1.27,2.25-2.61,1.93C407.26,234.57,408.14,232.88,407.55,231.94z"/>
	<path class="st116" d="M407.55,231.94c0.42,0.68,0.84,1.35,1.49,2.42c2.6-4.37,5.83-7.98,11.2-8.43c2.87-0.24,5.55,0.2,7.9,2.24
		c5.48,4.74,6.26,12.01,1.68,17.28c-5.32,6.13-11.23,5.64-19.89-1.78c-0.54,4.84-1.18,9.56-4.34,13.42
		c-0.32-0.37-0.64-0.73-0.95-1.09c3.32-7.45,4.9-15.04,1.99-23.03C406.94,232.62,407.24,232.28,407.55,231.94z"/>
	<path class="st117" d="M380.6,252.34c-6.72-0.08-11.61-5.39-11.45-12.42c0.15-6.38,5.44-11.21,12.23-11.17
		c6.44,0.04,11.82,5.34,11.85,11.67C393.25,247.19,387.7,252.43,380.6,252.34z"/>
	<path class="st118" d="M420.57,247.13c-5.82,0.01-9.26-3.41-9.22-9.16c0.04-6.32,3.77-9.87,10.41-9.91
		c5.3-0.03,8.87,3.61,8.93,9.12C430.77,243.73,427.32,247.12,420.57,247.13z"/>
	<path class="st119" d="M371.46,240.72c0-5.99,3.93-9.87,9.98-9.85c5.58,0.02,9.9,4.25,9.81,9.62c-0.1,5.63-4.45,9.89-10.23,10.02
		C375.41,250.64,371.46,246.59,371.46,240.72z"/>
	<path class="st120" d="M415.25,237.89c-0.18-4.66,2.88-5.73,6.16-5.77c3.86-0.04,5.6,2.68,5.51,6.24
		c-0.09,3.65-2.18,5.94-5.98,5.67C417.14,243.76,414.7,241.85,415.25,237.89z"/>
	<path class="st121" d="M375.21,241.18c0.29-3.74,1.8-6.26,5.7-6.4c3.84-0.13,5.85,2.17,6.24,5.74c0.35,3.21-3.01,6.51-6.3,6.37
		C377.2,246.72,375.78,244.27,375.21,241.18z"/>
</g>
</svg>
